{
  "accessors": [
    {
      "bufferView": 2,
      "componentType": 5126,
      "count": 64,
      "max": [
        1,
        2.9612336158752441,
        1
      ],
      "min": [
        -1,
        -1,
        -0.14844018220901489
      ],
      "type": "VEC3"
    },
    {
      "bufferView": 2,
      "byteOffset": 768,
      "componentType": 5126,
      "count": 64,
      "max": [
        1,
        1,
        1
      ],
      "min": [
        -1,
        -1,
        0
      ],
      "type": "VEC3"
    },
    {
      "bufferView": 1,
      "componentType": 5126,
      "count": 64,
      "max": [
        0.875,
        1
      ],
      "min": [
        0.125,
        0
      ],
      "type": "VEC2"
    },
    {
      "bufferView": 0,
      "componentType": 5125,
      "count": 96,
      "max": [
        63
      ],
      "min": [
        0
      ],
      "type": "SCALAR"
    },
    {
      "bufferView": 2,
      "byteOffset": 1536,
      "componentType": 5126,
      "count": 20,
      "max": [
        0.87562763690948486,
        2.8368611335754395,
        1
      ],
      "min": [
        -0.87562763690948486,
        -0.87562763690948486,
        0.508658766746521
      ],
      "type": "VEC3"
    },
    {
      "bufferView": 2,
      "byteOffset": 1776,
      "componentType": 5126,
      "count": 20,
      "max": [
        1,
        1,
        1
      ],
      "min": [
        -1,
        -1,
        -0
      ],
      "type": "VEC3"
    },
    {
      "bufferView": 1,
      "byteOffset": 512,
      "componentType": 5126,
      "count": 20,
      "max": [
        0.61715066432952881,
        0.98445349931716919
      ],
      "min": [
        0.38284936547279358,
        0.76554656028747559
      ],
      "type": "VEC2"
    },
    {
      "bufferView": 0,
      "byteOffset": 384,
      "componentType": 5125,
      "count": 30,
      "max": [
        19
      ],
      "min": [
        0
      ],
      "type": "SCALAR"
    },
    {
      "bufferView": 2,
      "byteOffset": 2016,
      "componentType": 5126,
      "count": 40,
      "max": [
        1,
        1,
        1.855223536491394
      ],
      "min": [
        -1,
        -1,
        -1
      ],
      "type": "VEC3"
    },
    {
      "bufferView": 2,
      "byteOffset": 2496,
      "componentType": 5126,
      "count": 40,
      "max": [
        1,
        1,
        1
      ],
      "min": [
        -1,
        -1,
        -1
      ],
      "type": "VEC3"
    },
    {
      "bufferView": 1,
      "byteOffset": 672,
      "componentType": 5126,
      "count": 40,
      "max": [
        0.875,
        1
      ],
      "min": [
        0.125,
        0
      ],
      "type": "VEC2"
    },
    {
      "bufferView": 0,
      "byteOffset": 504,
      "componentType": 5125,
      "count": 60,
      "max": [
        39
      ],
      "min": [
        0
      ],
      "type": "SCALAR"
    },
    {
      "bufferView": 2,
      "byteOffset": 2976,
      "componentType": 5126,
      "count": 24,
      "max": [
        1,
        1,
        1
      ],
      "min": [
        -1,
        -1,
        -1
      ],
      "type": "VEC3"
    },
    {
      "bufferView": 2,
      "byteOffset": 3264,
      "componentType": 5126,
      "count": 24,
      "max": [
        1,
        1,
        1
      ],
      "min": [
        -1,
        -1,
        -1
      ],
      "type": "VEC3"
    },
    {
      "bufferView": 1,
      "byteOffset": 992,
      "componentType": 5126,
      "count": 24,
      "max": [
        0.875,
        1
      ],
      "min": [
        0.125,
        0
      ],
      "type": "VEC2"
    },
    {
      "bufferView": 0,
      "byteOffset": 744,
      "componentType": 5125,
      "count": 36,
      "max": [
        23
      ],
      "min": [
        0
      ],
      "type": "SCALAR"
    },
    {
      "bufferView": 2,
      "byteOffset": 3552,
      "componentType": 5126,
      "count": 4,
      "max": [
        11.601598739624023,
        0.57636940479278564,
        1.855223536491394
      ],
      "min": [
        11.601598739624023,
        -0.57636940479278564,
        1
      ],
      "type": "VEC3"
    },
    {
      "bufferView": 2,
      "byteOffset": 3600,
      "componentType": 5126,
      "count": 4,
      "max": [
        1,
        0,
        0
      ],
      "min": [
        1,
        0,
        0
      ],
      "type": "VEC3"
    },
    {
      "bufferView": 1,
      "byteOffset": 1184,
      "componentType": 5126,
      "count": 4,
      "max": [
        0.57204622030258179,
        0.80295383930206299
      ],
      "min": [
        0.42795383930206299,
        0.80295377969741821
      ],
      "type": "VEC2"
    },
    {
      "bufferView": 0,
      "byteOffset": 888,
      "componentType": 5125,
      "count": 6,
      "max": [
        3
      ],
      "min": [
        0
      ],
      "type": "SCALAR"
    },
    {
      "bufferView": 2,
      "byteOffset": 3648,
      "componentType": 5126,
      "count": 24,
      "max": [
        11.601598739624023,
        0.57636940479278564,
        1.855223536491394
      ],
      "min": [
        -0.57636940479278564,
        -0.57636940479278564,
        1
      ],
      "type": "VEC3"
    },
    {
      "bufferView": 2,
      "byteOffset": 3936,
      "componentType": 5126,
      "count": 24,
      "max": [
        0,
        1,
        1
      ],
      "min": [
        0,
        -1,
        -1
      ],
      "type": "VEC3"
    },
    {
      "bufferView": 1,
      "byteOffset": 1216,
      "componentType": 5126,
      "count": 24,
      "max": [
        0.57204622030258179,
        0.94704622030258179
      ],
      "min": [
        0.42795383930206299,
        0.80295377969741821
      ],
      "type": "VEC2"
    },
    {
      "bufferView": 0,
      "byteOffset": 912,
      "componentType": 5125,
      "count": 42,
      "max": [
        23
      ],
      "min": [
        0
      ],
      "type": "SCALAR"
    },
    {
      "bufferView": 2,
      "byteOffset": 4224,
      "componentType": 5126,
      "count": 4,
      "max": [
        1,
        0,
        -0
      ],
      "min": [
        -1,
        0,
        -1
      ],
      "type": "VEC3"
    },
    {
      "bufferView": 2,
      "byteOffset": 4272,
      "componentType": 5126,
      "count": 4,
      "max": [
        -0,
        -1,
        -0
      ],
      "min": [
        -0,
        -1,
        -0
      ],
      "type": "VEC3"
    },
    {
      "bufferView": 1,
      "byteOffset": 1408,
      "componentType": 5126,
      "count": 4,
      "max": [
        1,
        1
      ],
      "min": [
        0,
        0.5
      ],
      "type": "VEC2"
    },
    {
      "bufferView": 0,
      "byteOffset": 1080,
      "componentType": 5125,
      "count": 6,
      "max": [
        3
      ],
      "min": [
        0
      ],
      "type": "SCALAR"
    },
    {
      "bufferView": 2,
      "byteOffset": 4320,
      "componentType": 5126,
      "count": 20,
      "max": [
        1,
        0.22456373274326324,
        8.8817841970012523e-16
      ],
      "min": [
        -1,
        0,
        -1
      ],
      "type": "VEC3"
    },
    {
      "bufferView": 2,
      "byteOffset": 4560,
      "componentType": 5126,
      "count": 20,
      "max": [
        1,
        1,
        1
      ],
      "min": [
        -1,
        -3.9551284441291783e-15,
        -1
      ],
      "type": "VEC3"
    },
    {
      "bufferView": 1,
      "byteOffset": 1440,
      "componentType": 5126,
      "count": 20,
      "max": [
        1,
        1
      ],
      "min": [
        0,
        0.5
      ],
      "type": "VEC2"
    },
    {
      "bufferView": 0,
      "byteOffset": 1104,
      "componentType": 5125,
      "count": 30,
      "max": [
        19
      ],
      "min": [
        0
      ],
      "type": "SCALAR"
    },
    {
      "bufferView": 2,
      "byteOffset": 4800,
      "componentType": 5126,
      "count": 36,
      "max": [
        2.0450000762939453,
        0,
        -0
      ],
      "min": [
        0.075000002980232239,
        0,
        -0.68200004100799561
      ],
      "type": "VEC3"
    },
    {
      "bufferView": 2,
      "byteOffset": 5232,
      "componentType": 5126,
      "count": 36,
      "max": [
        0,
        1,
        0
      ],
      "min": [
        0,
        0.99999994039535522,
        0
      ],
      "type": "VEC3"
    },
    {
      "bufferView": 1,
      "byteOffset": 1600,
      "componentType": 5126,
      "count": 36,
      "max": [
        1,
        0
      ],
      "min": [
        0,
        0
      ],
      "type": "VEC2"
    },
    {
      "bufferView": 0,
      "byteOffset": 1224,
      "componentType": 5125,
      "count": 78,
      "max": [
        35
      ],
      "min": [
        0
      ],
      "type": "SCALAR"
    }
  ],
  "asset": {
    "extras": {
      "author": "Amedhh (https://sketchfab.com/Amedhh)",
      "license": "CC-BY-4.0 (http://creativecommons.org/licenses/by/4.0/)",
      "source": "https://sketchfab.com/3d-models/exit-door-00fdc1969f634045bb9dbbcb80743939",
      "title": "Exit Door"
    },
    "generator": "Sketchfab-9.64.0",
    "version": "2.0"
  },
  "bufferViews": [
    {
      "buffer": 0,
      "byteLength": 1536,
      "byteOffset": 0,
      "name": "floatBufferViews",
      "target": 34963
    },
    {
      "buffer": 0,
      "byteLength": 1888,
      "byteOffset": 1536,
      "byteStride": 8,
      "name": "floatBufferViews",
      "target": 34962
    },
    {
      "buffer": 0,
      "byteLength": 5664,
      "byteOffset": 3424,
      "byteStride": 12,
      "name": "floatBufferViews",
      "target": 34962
    }
  ],
  "buffers": [
    {
      "byteLength": 9088,
      "uri": "scene.bin"
    }
  ],
  "materials": [
    {
      "doubleSided": true,
      "name": "material_0",
      "pbrMetallicRoughness": {
        "baseColorFactor": [
          1,
          1,
          1,
          1
        ],
        "metallicFactor": 0,
        "roughnessFactor": 0.59999999999999998
      }
    },
    {
      "doubleSided": true,
      "emissiveFactor": [
        0,
        0,
        0
      ],
      "name": "greybody",
      "pbrMetallicRoughness": {
        "baseColorFactor": [
          0.16264200000000001,
          0.16264200000000001,
          0.16264200000000001,
          1
        ],
        "metallicFactor": 0,
        "roughnessFactor": 0.5
      }
    },
    {
      "doubleSided": true,
      "emissiveFactor": [
        0,
        0,
        0
      ],
      "name": "darkgrey",
      "pbrMetallicRoughness": {
        "baseColorFactor": [
          0.049549200000000002,
          0.049549200000000002,
          0.049549200000000002,
          1
        ],
        "metallicFactor": 0,
        "roughnessFactor": 0.5
      }
    },
    {
      "doubleSided": true,
      "emissiveFactor": [
        0,
        0,
        0
      ],
      "name": "whitetokamk",
      "pbrMetallicRoughness": {
        "baseColorFactor": [
          0.91139400000000004,
          0.91139400000000004,
          0.91139400000000004,
          1
        ],
        "metallicFactor": 0,
        "roughnessFactor": 0.5
      }
    },
    {
      "doubleSided": true,
      "emissiveFactor": [
        0,
        0,
        0
      ],
      "name": "Material.001",
      "pbrMetallicRoughness": {
        "baseColorFactor": [
          0.017895600000000001,
          0.29569200000000001,
          0.016710900000000001,
          1
        ],
        "metallicFactor": 0,
        "roughnessFactor": 0.5
      }
    },
    {
      "doubleSided": true,
      "emissiveFactor": [
        0,
        0,
        0
      ],
      "name": "exittext",
      "pbrMetallicRoughness": {
        "baseColorFactor": [
          1,
          1,
          1,
          1
        ],
        "metallicFactor": 0,
        "roughnessFactor": 0.5
      }
    }
  ],
  "meshes": [
    {
      "primitives": [
        {
          "attributes": {
            "NORMAL": 1,
            "POSITION": 0,
            "TEXCOORD_0": 2
          },
          "indices": 3,
          "material": 1,
          "mode": 4
        }
      ]
    },
    {
      "primitives": [
        {
          "attributes": {
            "NORMAL": 5,
            "POSITION": 4,
            "TEXCOORD_0": 6
          },
          "indices": 7,
          "material": 2,
          "mode": 4
        }
      ]
    },
    {
      "primitives": [
        {
          "attributes": {
            "NORMAL": 9,
            "POSITION": 8,
            "TEXCOORD_0": 10
          },
          "indices": 11,
          "material": 3,
          "mode": 4
        }
      ]
    },
    {
      "primitives": [
        {
          "attributes": {
            "NORMAL": 13,
            "POSITION": 12,
            "TEXCOORD_0": 14
          },
          "indices": 15,
          "material": 0,
          "mode": 4
        }
      ]
    },
    {
      "primitives": [
        {
          "attributes": {
            "NORMAL": 17,
            "POSITION": 16,
            "TEXCOORD_0": 18
          },
          "indices": 19,
          "material": 0,
          "mode": 4
        }
      ]
    },
    {
      "primitives": [
        {
          "attributes": {
            "NORMAL": 21,
            "POSITION": 20,
            "TEXCOORD_0": 22
          },
          "indices": 23,
          "material": 0,
          "mode": 4
        }
      ]
    },
    {
      "primitives": [
        {
          "attributes": {
            "NORMAL": 25,
            "POSITION": 24,
            "TEXCOORD_0": 26
          },
          "indices": 27,
          "material": 1,
          "mode": 4
        }
      ]
    },
    {
      "primitives": [
        {
          "attributes": {
            "NORMAL": 29,
            "POSITION": 28,
            "TEXCOORD_0": 30
          },
          "indices": 31,
          "material": 4,
          "mode": 4
        }
      ]
    },
    {
      "primitives": [
        {
          "attributes": {
            "NORMAL": 33,
            "POSITION": 32,
            "TEXCOORD_0": 34
          },
          "indices": 35,
          "material": 5,
          "mode": 4
        }
      ]
    }
  ],
  "nodes": [
    {
      "children": [
        1
      ],
      "name": "RootNode (gltf orientation matrix)",
      "rotation": [
        -0.70710678118654746,
        -0,
        -0,
        0.70710678118654757
      ]
    },
    {
      "children": [
        2
      ],
      "name": "RootNode (model correction matrix)"
    },
    {
      "children": [
        3
      ],
      "name": "root"
    },
    {
      "children": [
        4,
        7,
        9,
        11,
        13,
        15,
        18
      ],
      "matrix": [
        1,
        0,
        0,
        0,
        0,
        2.2204460492503131e-16,
        1,
        0,
        0,
        -1,
        2.2204460492503131e-16,
        0,
        0,
        0,
        0,
        1
      ],
      "name": "GLTF_SceneRootNode"
    },
    {
      "children": [
        5,
        6
      ],
      "matrix": [
        1.8719078302383423,
        0,
        0,
        0,
        0,
        1.8719078302383423,
        0,
        0,
        0,
        0,
        1.8719078302383423,
        0,
        0,
        2.3388586044311523,
        0,
        1
      ],
      "name": "Cube_0"
    },
    {
      "mesh": 0,
      "name": ""
    },
    {
      "mesh": 1,
      "name": ""
    },
    {
      "children": [
        8
      ],
      "matrix": [
        0.16462251543998718,
        0,
        0,
        0,
        0,
        0.16462251543998718,
        0,
        0,
        0,
        0,
        0.16462251543998718,
        0,
        -0.84151697158813477,
        3.6990907192230225,
        1.1167806386947632,
        1
      ],
      "name": "Cube.001_1"
    },
    {
      "mesh": 2,
      "name": ""
    },
    {
      "children": [
        10
      ],
      "matrix": [
        0.16462251543998718,
        0,
        0,
        0,
        0,
        0.16462251543998718,
        0,
        0,
        0,
        0,
        0.16462251543998718,
        0,
        0.99270987510681152,
        3.7087795734405518,
        1.116786003112793,
        1
      ],
      "name": "Cube.002_2"
    },
    {
      "mesh": 3,
      "name": ""
    },
    {
      "children": [
        12
      ],
      "matrix": [
        0.16462251543998718,
        0,
        0,
        0,
        0,
        0.16462251543998718,
        0,
        0,
        0,
        0,
        0.16462251543998718,
        0,
        -0.84151697158813477,
        3.6990907192230225,
        1.1167806386947632,
        1
      ],
      "name": "Cube.003_3"
    },
    {
      "mesh": 4,
      "name": ""
    },
    {
      "children": [
        14
      ],
      "matrix": [
        0.16462251543998718,
        0,
        0,
        0,
        -0,
        0.13670282988678892,
        -0.091721910636076862,
        0,
        0,
        0.091721910636076862,
        0.13670282988678892,
        0,
        -0.84151697158813477,
        3.548408031463623,
        1.1167806386947632,
        1
      ],
      "name": "Cube.004_4"
    },
    {
      "mesh": 5,
      "name": ""
    },
    {
      "children": [
        16,
        17
      ],
      "matrix": [
        0.79185330867767334,
        0,
        0,
        0,
        0,
        0,
        0.79185330867767334,
        0,
        0,
        -0.79185330867767334,
        0,
        0,
        0.029974788427352905,
        6.2678365707397461,
        0.95216166973114014,
        1
      ],
      "name": "Plane_5"
    },
    {
      "mesh": 6,
      "name": ""
    },
    {
      "mesh": 7,
      "name": ""
    },
    {
      "children": [
        19
      ],
      "matrix": [
        0.63671857118606567,
        0,
        0,
        0,
        0,
        0,
        0.63671857118606567,
        0,
        0,
        -0.63671857118606567,
        0,
        0,
        -0.57024872303009033,
        6.4174718856811523,
        1.1866461038589478,
        1
      ],
      "name": "Text.001_7"
    },
    {
      "mesh": 8,
      "name": ""
    }
  ],
  "scene": 0,
  "scenes": [
    {
      "name": "OSG_Scene",
      "nodes": [
        0
      ]
    }
  ]
}

