{
  "accessors": [
    {
      "bufferView": 2,
      "componentType": 5126,
      "count": 212,
      "max": [
        1,
        1,
        -0.48715603351593018
      ],
      "min": [
        -1,
        -1,
        -1
      ],
      "type": "VEC3"
    },
    {
      "bufferView": 2,
      "byteOffset": 2544,
      "componentType": 5126,
      "count": 212,
      "max": [
        1,
        1,
        0
      ],
      "min": [
        -1,
        -1,
        -1
      ],
      "type": "VEC3"
    },
    {
      "bufferView": 3,
      "componentType": 5126,
      "count": 212,
      "max": [
        7.9974677191785304e-07,
        8.0250492828781717e-07,
        1,
        1
      ],
      "min": [
        -0.63439428806304932,
        -0.7730104923248291,
        -1,
        1
      ],
      "type": "VEC4"
    },
    {
      "bufferView": 1,
      "componentType": 5126,
      "count": 212,
      "max": [
        1,
        1
      ],
      "min": [
        0,
        0
      ],
      "type": "VEC2"
    },
    {
      "bufferView": 0,
      "componentType": 5125,
      "count": 576,
      "max": [
        211
      ],
      "min": [
        0
      ],
      "type": "SCALAR"
    },
    {
      "bufferView": 2,
      "byteOffset": 5088,
      "componentType": 5126,
      "count": 96,
      "max": [
        0.509735107421875,
        0.50973504781723022,
        0.19379168748855591
      ],
      "min": [
        -0.50973492860794067,
        -0.50973504781723022,
        0.067321151494979858
      ],
      "type": "VEC3"
    },
    {
      "bufferView": 2,
      "byteOffset": 6240,
      "componentType": 5126,
      "count": 96,
      "max": [
        0.99916303157806396,
        0.99916303157806396,
        1.2901623769323578e-08
      ],
      "min": [
        -0.99916303157806396,
        -0.99916303157806396,
        -2.5803268499657861e-07
      ],
      "type": "VEC3"
    },
    {
      "bufferView": 3,
      "byteOffset": 3392,
      "componentType": 5126,
      "count": 96,
      "max": [
        0.99916303157806396,
        0.99916297197341919,
        4.823500603379216e-07,
        1
      ],
      "min": [
        -0.99916297197341919,
        -0.99916297197341919,
        -9.333724904081464e-08,
        1
      ],
      "type": "VEC4"
    },
    {
      "bufferView": 1,
      "byteOffset": 1696,
      "componentType": 5126,
      "count": 96,
      "max": [
        1,
        0.99999994039535522
      ],
      "min": [
        0,
        0
      ],
      "type": "VEC2"
    },
    {
      "bufferView": 0,
      "byteOffset": 2304,
      "componentType": 5125,
      "count": 240,
      "max": [
        95
      ],
      "min": [
        0
      ],
      "type": "SCALAR"
    },
    {
      "bufferView": 2,
      "byteOffset": 7392,
      "componentType": 5126,
      "count": 2688,
      "max": [
        0.52003461122512817,
        0.5200345516204834,
        0.19501578807830811
      ],
      "min": [
        -0.52003443241119385,
        -0.5200345516204834,
        0.061970870941877365
      ],
      "type": "VEC3"
    },
    {
      "bufferView": 2,
      "byteOffset": 39648,
      "componentType": 5126,
      "count": 2688,
      "max": [
        0.99926406145095825,
        0.9992639422416687,
        1
      ],
      "min": [
        -0.99926400184631348,
        -0.99926400184631348,
        -1
      ],
      "type": "VEC3"
    },
    {
      "bufferView": 3,
      "byteOffset": 4928,
      "componentType": 5126,
      "count": 2688,
      "max": [
        1,
        1,
        1,
        1
      ],
      "min": [
        -1,
        -1,
        -1,
        1
      ],
      "type": "VEC4"
    },
    {
      "bufferView": 1,
      "byteOffset": 2464,
      "componentType": 5126,
      "count": 2688,
      "max": [
        1,
        1
      ],
      "min": [
        0,
        0
      ],
      "type": "VEC2"
    },
    {
      "bufferView": 0,
      "byteOffset": 3264,
      "componentType": 5125,
      "count": 7872,
      "max": [
        2687
      ],
      "min": [
        0
      ],
      "type": "SCALAR"
    },
    {
      "bufferView": 2,
      "byteOffset": 71904,
      "componentType": 5126,
      "count": 295,
      "max": [
        0.99395614862442017,
        0.99395614862442017,
        0.99395751953125
      ],
      "min": [
        -0.99395614862442017,
        -0.027137931436300278,
        -0.99395751953125
      ],
      "type": "VEC3"
    },
    {
      "bufferView": 2,
      "byteOffset": 75444,
      "componentType": 5126,
      "count": 295,
      "max": [
        0.99436271190643311,
        0.00044990377500653267,
        0.99436253309249878
      ],
      "min": [
        -0.99436503648757935,
        -0.99436062574386597,
        -0.99436253309249878
      ],
      "type": "VEC3"
    },
    {
      "bufferView": 3,
      "byteOffset": 47936,
      "componentType": 5126,
      "count": 295,
      "max": [
        0.70417743921279907,
        0.99999988079071045,
        0.95349770784378052,
        1
      ],
      "min": [
        -0.70147567987442017,
        -0.99998784065246582,
        -0.98661953210830688,
        -1
      ],
      "type": "VEC4"
    },
    {
      "bufferView": 1,
      "byteOffset": 23968,
      "componentType": 5126,
      "count": 295,
      "max": [
        1,
        0.99999994039535522
      ],
      "min": [
        0,
        0
      ],
      "type": "VEC2"
    },
    {
      "bufferView": 0,
      "byteOffset": 34752,
      "componentType": 5125,
      "count": 1086,
      "max": [
        294
      ],
      "min": [
        0
      ],
      "type": "SCALAR"
    },
    {
      "bufferView": 2,
      "byteOffset": 78984,
      "componentType": 5126,
      "count": 664,
      "max": [
        1,
        0.76985740661621094,
        0.99999982118606567
      ],
      "min": [
        -0.99999970197677612,
        0.022032888606190681,
        -0.99999982118606567
      ],
      "type": "VEC3"
    },
    {
      "bufferView": 2,
      "byteOffset": 86952,
      "componentType": 5126,
      "count": 664,
      "max": [
        1,
        1,
        1
      ],
      "min": [
        -1,
        -1,
        -1
      ],
      "type": "VEC3"
    },
    {
      "bufferView": 3,
      "byteOffset": 52656,
      "componentType": 5126,
      "count": 664,
      "max": [
        1,
        1,
        1,
        1
      ],
      "min": [
        -1,
        -1,
        -1,
        1
      ],
      "type": "VEC4"
    },
    {
      "bufferView": 1,
      "byteOffset": 26328,
      "componentType": 5126,
      "count": 664,
      "max": [
        1,
        1
      ],
      "min": [
        0,
        0
      ],
      "type": "VEC2"
    },
    {
      "bufferView": 0,
      "byteOffset": 39096,
      "componentType": 5125,
      "count": 2154,
      "max": [
        663
      ],
      "min": [
        0
      ],
      "type": "SCALAR"
    },
    {
      "bufferView": 2,
      "byteOffset": 94920,
      "componentType": 5126,
      "count": 929,
      "max": [
        0.29629874229431152,
        0.0060583068989217281,
        0.29629865288734436
      ],
      "min": [
        -0.29629865288734436,
        -0.065762743353843689,
        -0.29629865288734436
      ],
      "type": "VEC3"
    },
    {
      "bufferView": 2,
      "byteOffset": 106068,
      "componentType": 5126,
      "count": 929,
      "max": [
        1,
        1,
        1
      ],
      "min": [
        -1,
        -1.5604420696035959e-05,
        -1
      ],
      "type": "VEC3"
    },
    {
      "bufferView": 3,
      "byteOffset": 63280,
      "componentType": 5126,
      "count": 929,
      "max": [
        1,
        0.99999970197677612,
        0.97357636690139771,
        1
      ],
      "min": [
        -0.068299822509288788,
        -0.99996042251586914,
        -0.57286185026168823,
        1
      ],
      "type": "VEC4"
    },
    {
      "bufferView": 1,
      "byteOffset": 31640,
      "componentType": 5126,
      "count": 929,
      "max": [
        0.99990260601043701,
        0.94774341583251953
      ],
      "min": [
        9.7337651823181659e-05,
        9.7337651823181659e-05
      ],
      "type": "VEC2"
    },
    {
      "bufferView": 0,
      "byteOffset": 47712,
      "componentType": 5125,
      "count": 3780,
      "max": [
        928
      ],
      "min": [
        0
      ],
      "type": "SCALAR"
    },
    {
      "bufferView": 2,
      "byteOffset": 117216,
      "componentType": 5126,
      "count": 21,
      "max": [
        5.8710055351257324,
        0,
        5.8710064888000488
      ],
      "min": [
        -5.8710060119628906,
        -4.1448323782159748e-16,
        -5.871006965637207
      ],
      "type": "VEC3"
    },
    {
      "bufferView": 2,
      "byteOffset": 117468,
      "componentType": 5126,
      "count": 21,
      "max": [
        7.0598323416739113e-17,
        1,
        7.0598310181849312e-17
      ],
      "min": [
        -7.0598343269073814e-17,
        1,
        -7.0598336651628914e-17
      ],
      "type": "VEC3"
    },
    {
      "bufferView": 3,
      "byteOffset": 78144,
      "componentType": 5126,
      "count": 21,
      "max": [
        -0.15643370151519775,
        6.9729181586072496e-17,
        0.98768854141235352,
        1
      ],
      "min": [
        -0.15643393993377686,
        -6.9729155116292894e-17,
        0.98768842220306396,
        1
      ],
      "type": "VEC4"
    },
    {
      "bufferView": 1,
      "byteOffset": 39072,
      "componentType": 5126,
      "count": 21,
      "max": [
        1,
        1
      ],
      "min": [
        0,
        0
      ],
      "type": "VEC2"
    },
    {
      "bufferView": 0,
      "byteOffset": 62832,
      "componentType": 5125,
      "count": 60,
      "max": [
        20
      ],
      "min": [
        0
      ],
      "type": "SCALAR"
    }
  ],
  "asset": {
    "extras": {
      "author": "vslite (https://sketchfab.com/vslite)",
      "license": "CC-BY-4.0 (http://creativecommons.org/licenses/by/4.0/)",
      "source": "https://sketchfab.com/3d-models/arena-gallery-bea6ad75e251479797e5f6f3375824cd",
      "title": "Arena Gallery"
    },
    "generator": "Sketchfab-4.40.0",
    "version": "2.0"
  },
  "bufferViews": [
    {
      "buffer": 0,
      "byteLength": 63072,
      "byteOffset": 0,
      "name": "floatBufferViews",
      "target": 34963
    },
    {
      "buffer": 0,
      "byteLength": 39240,
      "byteOffset": 63072,
      "byteStride": 8,
      "name": "floatBufferViews",
      "target": 34962
    },
    {
      "buffer": 0,
      "byteLength": 117720,
      "byteOffset": 102312,
      "byteStride": 12,
      "name": "floatBufferViews",
      "target": 34962
    },
    {
      "buffer": 0,
      "byteLength": 78480,
      "byteOffset": 220032,
      "byteStride": 16,
      "name": "floatBufferViews",
      "target": 34962
    }
  ],
  "buffers": [
    {
      "byteLength": 298512,
      "uri": "scene.bin"
    }
  ],
  "images": [
    {
      "uri": "textures/Wall_emissive.png"
    },
    {
      "uri": "textures/Wall_normal.png"
    },
    {
      "uri": "textures/Wall_baseColor.png"
    },
    {
      "uri": "textures/Wall_metallicRoughness.png"
    },
    {
      "uri": "textures/Middle_emissive.png"
    },
    {
      "uri": "textures/Middle_normal.png"
    },
    {
      "uri": "textures/Middle_baseColor.png"
    },
    {
      "uri": "textures/Middle_metallicRoughness.png"
    },
    {
      "uri": "textures/Floor_normal.png"
    },
    {
      "uri": "textures/Floor_baseColor.png"
    },
    {
      "uri": "textures/Floor_metallicRoughness.png"
    },
    {
      "uri": "textures/wall2_normal.png"
    },
    {
      "uri": "textures/wall2_baseColor.png"
    },
    {
      "uri": "textures/wall2_metallicRoughness.png"
    }
  ],
  "materials": [
    {
      "doubleSided": true,
      "emissiveFactor": [
        0,
        0,
        0
      ],
      "name": "wall2",
      "normalTexture": {
        "index": 11,
        "scale": 1,
        "texCoord": 0
      },
      "pbrMetallicRoughness": {
        "baseColorFactor": [
          1,
          1,
          1,
          1
        ],
        "baseColorTexture": {
          "index": 12,
          "texCoord": 0
        },
        "metallicFactor": 1,
        "metallicRoughnessTexture": {
          "index": 13,
          "texCoord": 0
        },
        "roughnessFactor": 0.95770514949999996
      }
    },
    {
      "doubleSided": true,
      "emissiveFactor": [
        0.1382575758,
        0.1382575758,
        0.1382575758
      ],
      "name": "Painting",
      "pbrMetallicRoughness": {
        "baseColorFactor": [
          1,
          1,
          1,
          1
        ],
        "metallicFactor": 0,
        "roughnessFactor": 0
      }
    },
    {
      "doubleSided": true,
      "emissiveFactor": [
        0,
        0,
        0
      ],
      "name": "PaintingFrame",
      "pbrMetallicRoughness": {
        "baseColorFactor": [
          0.17590909088000001,
          0.17590909088000001,
          0.17590909088000001,
          1
        ],
        "metallicFactor": 0.59564393940000004,
        "roughnessFactor": 0.72291666669999999
      }
    },
    {
      "doubleSided": true,
      "emissiveFactor": [
        0,
        0,
        0
      ],
      "name": "Dome",
      "pbrMetallicRoughness": {
        "baseColorFactor": [
          0.18397471930000001,
          0.18397471930000001,
          0.18397471930000001,
          1
        ],
        "metallicFactor": 1,
        "roughnessFactor": 0.92086566479999998
      }
    },
    {
      "doubleSided": false,
      "emissiveFactor": [
        1,
        1,
        1
      ],
      "emissiveTexture": {
        "index": 0,
        "texCoord": 0
      },
      "name": "Wall",
      "normalTexture": {
        "index": 1,
        "scale": 1,
        "texCoord": 0
      },
      "pbrMetallicRoughness": {
        "baseColorFactor": [
          1,
          1,
          1,
          1
        ],
        "baseColorTexture": {
          "index": 2,
          "texCoord": 0
        },
        "metallicFactor": 1,
        "metallicRoughnessTexture": {
          "index": 3,
          "texCoord": 0
        },
        "roughnessFactor": 0.32291666670000002
      }
    },
    {
      "doubleSided": true,
      "emissiveFactor": [
        1,
        1,
        1
      ],
      "emissiveTexture": {
        "index": 4,
        "texCoord": 0
      },
      "name": "Middle",
      "normalTexture": {
        "index": 5,
        "scale": 1,
        "texCoord": 0
      },
      "pbrMetallicRoughness": {
        "baseColorFactor": [
          1,
          1,
          1,
          1
        ],
        "baseColorTexture": {
          "index": 6,
          "texCoord": 0
        },
        "metallicFactor": 1,
        "metallicRoughnessTexture": {
          "index": 7,
          "texCoord": 0
        },
        "roughnessFactor": 0.95770514949999996
      }
    },
    {
      "doubleSided": true,
      "emissiveFactor": [
        0,
        0,
        0
      ],
      "name": "Floor",
      "normalTexture": {
        "index": 8,
        "scale": 1,
        "texCoord": 0
      },
      "pbrMetallicRoughness": {
        "baseColorFactor": [
          1,
          1,
          1,
          1
        ],
        "baseColorTexture": {
          "index": 9,
          "texCoord": 0
        },
        "metallicFactor": 1,
        "metallicRoughnessTexture": {
          "index": 10,
          "texCoord": 0
        },
        "roughnessFactor": 0.95770514949999996
      }
    }
  ],
  "meshes": [
    {
      "name": "Cylinder_wall2_0",
      "primitives": [
        {
          "attributes": {
            "NORMAL": 1,
            "POSITION": 0,
            "TANGENT": 2,
            "TEXCOORD_0": 3
          },
          "indices": 4,
          "material": 0,
          "mode": 4
        }
      ]
    },
    {
      "name": "new:polySurface13_Painting_0",
      "primitives": [
        {
          "attributes": {
            "NORMAL": 6,
            "POSITION": 5,
            "TANGENT": 7,
            "TEXCOORD_0": 8
          },
          "indices": 9,
          "material": 1,
          "mode": 4
        }
      ]
    },
    {
      "name": "new:polySurface13_PaintingFrame_0",
      "primitives": [
        {
          "attributes": {
            "NORMAL": 11,
            "POSITION": 10,
            "TANGENT": 12,
            "TEXCOORD_0": 13
          },
          "indices": 14,
          "material": 2,
          "mode": 4
        }
      ]
    },
    {
      "name": "new:pPlatonic1_Dome_0",
      "primitives": [
        {
          "attributes": {
            "NORMAL": 16,
            "POSITION": 15,
            "TANGENT": 17,
            "TEXCOORD_0": 18
          },
          "indices": 19,
          "material": 3,
          "mode": 4
        }
      ]
    },
    {
      "name": "new:polySurface3_Wall_0",
      "primitives": [
        {
          "attributes": {
            "NORMAL": 21,
            "POSITION": 20,
            "TANGENT": 22,
            "TEXCOORD_0": 23
          },
          "indices": 24,
          "material": 4,
          "mode": 4
        }
      ]
    },
    {
      "name": "new:__pCylinder1_Middle_0",
      "primitives": [
        {
          "attributes": {
            "NORMAL": 26,
            "POSITION": 25,
            "TANGENT": 27,
            "TEXCOORD_0": 28
          },
          "indices": 29,
          "material": 5,
          "mode": 4
        }
      ]
    },
    {
      "name": "new:_______polySurface1_Floor_0",
      "primitives": [
        {
          "attributes": {
            "NORMAL": 31,
            "POSITION": 30,
            "TANGENT": 32,
            "TEXCOORD_0": 33
          },
          "indices": 34,
          "material": 6,
          "mode": 4
        }
      ]
    }
  ],
  "nodes": [
    {
      "children": [
        1
      ],
      "name": "RootNode (gltf orientation matrix)",
      "rotation": [
        -0.70710678118654746,
        -0,
        -0,
        0.70710678118654757
      ]
    },
    {
      "children": [
        2
      ],
      "name": "RootNode (model correction matrix)"
    },
    {
      "children": [
        3
      ],
      "matrix": [
        1,
        0,
        0,
        0,
        0,
        0,
        1,
        0,
        0,
        -1,
        0,
        0,
        0,
        0,
        0,
        1
      ],
      "name": "879276318e794e95a111c4ebe1e7d71e.fbx"
    },
    {
      "children": [
        4,
        6,
        9,
        11,
        15,
        17
      ],
      "name": "RootNode"
    },
    {
      "children": [
        5
      ],
      "matrix": [
        69.191047668457031,
        0,
        0,
        0,
        0,
        -1.1272652493977612e-05,
        -69.191047668456122,
        0,
        0,
        69.191047668456122,
        -1.1272652493977612e-05,
        0,
        1.3334491768546286e-06,
        69.594154357910156,
        -4.1267239794251509e-06,
        1
      ],
      "name": "Cylinder"
    },
    {
      "mesh": 0,
      "name": "Cylinder_wall2_0"
    },
    {
      "children": [
        7,
        8
      ],
      "matrix": [
        70.710676573223722,
        -1.1102230246251565e-14,
        -70.710679664085745,
        0,
        -70.710679664084822,
        -1.6292067983592062e-05,
        -70.710676573222784,
        0,
        -1.1520231985029383e-05,
        99.999999999998693,
        -1.1520231502082368e-05,
        0,
        1.3767221389571205e-06,
        0.76206398010253906,
        3.3237010939046741e-06,
        1
      ],
      "name": "new:polySurface13"
    },
    {
      "mesh": 1,
      "name": "new:polySurface13_Painting_0"
    },
    {
      "mesh": 2,
      "name": "new:polySurface13_PaintingFrame_0"
    },
    {
      "children": [
        10
      ],
      "matrix": [
        54.845993041992188,
        0,
        0,
        0,
        0,
        47.533191680907571,
        7.7441401461779005e-06,
        0,
        0,
        -8.9355467527774098e-06,
        54.845993041991456,
        0,
        0,
        46.372005462646484,
        0.15187036991119385,
        1
      ],
      "name": "new:pPlatonic1"
    },
    {
      "mesh": 3,
      "name": "new:pPlatonic1_Dome_0"
    },
    {
      "children": [
        12
      ],
      "matrix": [
        59.762912750244141,
        0,
        0,
        0,
        0,
        59.762912750243345,
        9.7366146794552875e-06,
        0,
        0,
        -9.7366146794552875e-06,
        59.762912750243345,
        0,
        0,
        0,
        0,
        1
      ],
      "name": "new:pCylinder1"
    },
    {
      "children": [
        13
      ],
      "matrix": [
        1,
        0,
        0,
        0,
        0,
        1,
        7.9409338805090645e-23,
        0,
        0,
        -7.9409338805090645e-23,
        1,
        0,
        0,
        0,
        0,
        1
      ],
      "name": "new:polySurface1"
    },
    {
      "children": [
        14
      ],
      "name": "new:polySurface3"
    },
    {
      "mesh": 4,
      "name": "new:polySurface3_Wall_0"
    },
    {
      "children": [
        16
      ],
      "matrix": [
        100,
        0,
        0,
        0,
        0,
        99.999999999998664,
        1.6292067073209114e-05,
        0,
        0,
        -1.6292067073209114e-05,
        99.999999999998664,
        0,
        0,
        5.1405086517333984,
        0,
        1
      ],
      "name": "new:__pCylinder1"
    },
    {
      "mesh": 5,
      "name": "new:__pCylinder1_Middle_0"
    },
    {
      "children": [
        18
      ],
      "matrix": [
        12.185782432556152,
        0,
        0,
        0,
        0,
        12.185782432556117,
        -9.2000099891823771e-07,
        0,
        0,
        9.2000099891823771e-07,
        12.185782432556117,
        0,
        1.3334491768546286e-06,
        -80.224815368652344,
        2.000173708438524e-06,
        1
      ],
      "name": "new:_______pCylinder5"
    },
    {
      "children": [
        19
      ],
      "matrix": [
        1.0305119752883911,
        0,
        0,
        0,
        0,
        1.0305119752883911,
        -3.5527137185051695e-15,
        0,
        0,
        3.5527137185051695e-15,
        1.0305119752883911,
        0,
        7.2746146884128393e-09,
        6.6596646308898926,
        7.2745365287119057e-09,
        1
      ],
      "name": "new:_______polySurface1"
    },
    {
      "mesh": 6,
      "name": "new:_______polySurface1_Floor_0"
    }
  ],
  "samplers": [
    {
      "magFilter": 9729,
      "minFilter": 9987,
      "wrapS": 10497,
      "wrapT": 10497
    }
  ],
  "scene": 0,
  "scenes": [
    {
      "name": "OSG_Scene",
      "nodes": [
        0
      ]
    }
  ],
  "textures": [
    {
      "sampler": 0,
      "source": 0
    },
    {
      "sampler": 0,
      "source": 1
    },
    {
      "sampler": 0,
      "source": 2
    },
    {
      "sampler": 0,
      "source": 3
    },
    {
      "sampler": 0,
      "source": 4
    },
    {
      "sampler": 0,
      "source": 5
    },
    {
      "sampler": 0,
      "source": 6
    },
    {
      "sampler": 0,
      "source": 7
    },
    {
      "sampler": 0,
      "source": 8
    },
    {
      "sampler": 0,
      "source": 9
    },
    {
      "sampler": 0,
      "source": 10
    },
    {
      "sampler": 0,
      "source": 11
    },
    {
      "sampler": 0,
      "source": 12
    },
    {
      "sampler": 0,
      "source": 13
    }
  ]
}

