<svg xmlns="http://www.w3.org/2000/svg" width="2455" height="2455" viewBox="0 0 2455 2455">
  <g id="グループ_46" data-name="グループ 46" transform="translate(11288 -10813)">
    <rect id="長方形_3" data-name="長方形 3" width="2455" height="2455" transform="translate(-11288 10813)" fill="#ffaf00"/>
    <g id="グループ_42" data-name="グループ 42" transform="translate(-2663 314.49)">
      <g id="グループ_32" data-name="グループ 32" transform="translate(-7300.012 10865.51)">
        <g id="simple_standing" transform="translate(0 0)">
          <path id="パス_3" data-name="パス 3" d="M356.97,287.473A143.737,143.737,0,1,0,213.222,143.748,143.735,143.735,0,0,0,356.97,287.473Z" transform="translate(-22.718)" fill="#fff"/>
          <path id="パス_4" data-name="パス 4" d="M679.619,97.623H301.945C232.3,97.623,156.53,173.4,156.53,243.065V726.173a63.062,63.062,0,1,0,126.123,0V328.965h29.07V1407.229a82.839,82.839,0,0,0,165.678,0V781.5h26.762v625.731a82.837,82.837,0,0,0,165.674,0V328.968h29.127V726.177a63.035,63.035,0,1,0,126.07,0V243.065C825.034,173.4,749.266,97.623,679.619,97.623Z" transform="translate(-156.53 230.423)" fill="#fff"/>
        </g>
      </g>
      <g id="グループ_35" data-name="グループ 35" transform="translate(-8164 10865.51)">
        <g id="simple_standing-2" data-name="simple_standing" transform="translate(0 0)">
          <path id="パス_3-2" data-name="パス 3" d="M356.97,287.473A143.737,143.737,0,1,0,213.222,143.748,143.735,143.735,0,0,0,356.97,287.473Z" transform="translate(-22.718)" fill="#fff"/>
          <path id="パス_4-2" data-name="パス 4" d="M679.619,97.623H301.945C232.3,97.623,156.53,173.4,156.53,243.065V726.173a63.062,63.062,0,1,0,126.123,0V328.965h29.07V1407.229a82.839,82.839,0,0,0,165.678,0V781.5h26.762v625.731a82.837,82.837,0,0,0,165.674,0V328.968h29.127V726.177a63.035,63.035,0,1,0,126.07,0V243.065C825.034,173.4,749.266,97.623,679.619,97.623Z" transform="translate(-156.53 230.423)" fill="#fff"/>
        </g>
      </g>
    </g>
  </g>
</svg>
