<svg xmlns="http://www.w3.org/2000/svg" width="2455" height="2455" viewBox="0 0 2455 2455">
  <g id="グループ_45" data-name="グループ 45" transform="translate(11288 -13857)">
    <g id="グループ_48" data-name="グループ 48">
      <rect id="長方形_4" data-name="長方形 4" width="2455" height="2455" transform="translate(-11288 13857)" fill="#ff6d72"/>
      <g id="グループ_44" data-name="グループ 44" transform="translate(-2696 743)">
        <g id="グループ_34" data-name="グループ 34" transform="translate(-7655.612 13591)">
          <g id="simple_standing" transform="translate(0)">
            <path id="パス_3" data-name="パス 3" d="M338.551,250.638A125.319,125.319,0,1,0,213.222,125.329,125.318,125.318,0,0,0,338.551,250.638Z" transform="translate(-47.128)" fill="#fff"/>
            <path id="パス_4" data-name="パス 4" d="M612.594,97.623H283.313c-60.719,0-126.783,66.063-126.783,126.806V645.635a54.981,54.981,0,1,0,109.963,0V299.323h25.345v940.1a72.225,72.225,0,0,0,144.449,0V693.874H459.62v545.554a72.223,72.223,0,0,0,144.446,0v-940.1h25.4V645.638a54.958,54.958,0,1,0,109.916,0V224.429C739.377,163.686,673.317,97.623,612.594,97.623Z" transform="translate(-156.53 188.389)" fill="#fff"/>
          </g>
        </g>
        <g id="グループ_38" data-name="グループ 38" transform="translate(-7017.372 13591)">
          <g id="simple_standing-2" data-name="simple_standing" transform="translate(0)">
            <path id="パス_3-2" data-name="パス 3" d="M338.551,250.638A125.319,125.319,0,1,0,213.222,125.329,125.318,125.318,0,0,0,338.551,250.638Z" transform="translate(-47.128)" fill="#fff"/>
            <path id="パス_4-2" data-name="パス 4" d="M612.594,97.623H283.313c-60.719,0-126.783,66.063-126.783,126.806V645.635a54.981,54.981,0,1,0,109.963,0V299.323h25.345v940.1a72.225,72.225,0,0,0,144.449,0V693.874H459.62v545.554a72.223,72.223,0,0,0,144.446,0v-940.1h25.4V645.638a54.958,54.958,0,1,0,109.916,0V224.429C739.377,163.686,673.317,97.623,612.594,97.623Z" transform="translate(-156.53 188.389)" fill="#fff"/>
          </g>
        </g>
        <g id="グループ_39" data-name="グループ 39" transform="translate(-8294 13591)">
          <g id="simple_standing-3" data-name="simple_standing" transform="translate(0)">
            <path id="パス_3-3" data-name="パス 3" d="M338.551,250.638A125.319,125.319,0,1,0,213.222,125.329,125.318,125.318,0,0,0,338.551,250.638Z" transform="translate(-47.128)" fill="#fff"/>
            <path id="パス_4-3" data-name="パス 4" d="M612.594,97.623H283.313c-60.719,0-126.783,66.063-126.783,126.806V645.635a54.981,54.981,0,1,0,109.963,0V299.323h25.345v940.1a72.225,72.225,0,0,0,144.449,0V693.874H459.62v545.554a72.223,72.223,0,0,0,144.446,0v-940.1h25.4V645.638a54.958,54.958,0,1,0,109.916,0V224.429C739.377,163.686,673.317,97.623,612.594,97.623Z" transform="translate(-156.53 188.389)" fill="#fff"/>
          </g>
        </g>
      </g>
    </g>
  </g>
</svg>
