<?xml version="1.0" encoding="utf-8"?>
<!-- Generator: Adobe Illustrator 22.1.0, SVG Export Plug-In . SVG Version: 6.00 Build 0)  -->
<svg version="1.1" id="_x30_" xmlns="http://www.w3.org/2000/svg" xmlns:xlink="http://www.w3.org/1999/xlink" x="0px" y="0px"
	 viewBox="0 0 804 804" style="enable-background:new 0 0 804 804;" xml:space="preserve">
<style type="text/css">
	.st0{fill:#FF1515;}
	.st1{fill:#FFFFFF;}
</style>
<g>
	<path class="st0" d="M619.885,355.911c-8.752-74.997-65.257-101.718-115.219-101.718c-46.018,0-91.954,21.694-117.027,55.27
		c-5.424,7.263-10.666,16.106-15.515,26.071c5.146-68.518-9.233-106.472-42.8-112.822c-4.047-0.766-8.157-1.154-12.214-1.154
		c-19.617,0-38.24,8.831-53.856,25.536c-14.606,15.622-26.225,37.728-34.114,64.686c-28.842-56.715-61.757-85.43-98.016-85.43
		c-9.21,0-18.379,1.968-27.25,5.85C39.796,260.232,7.322,398.805,13.119,481.886c4.184,59.985,27.83,78.954,46.93,84.305
		c8.377,2.346,16.681,3.536,24.681,3.536c22.44,0,42.865-9.277,59.064-26.825c11.791-12.77,21.213-29.539,28.134-50.024
		c24.351,53.845,53.753,80.535,89.575,81.431l0.941,0.01c28.917-0.011,53.731-28.469,75.861-86.999
		c2.62-6.931,5.125-14.15,7.525-21.543c1.318,20.396,5.631,40.005,13.894,57.172c17.946,37.279,50.941,57.741,95.424,59.17
		c1.598,0.051,3.198,0.076,4.793,0.076c43.051,0,83.193-18.461,113.033-51.985C611.315,487.137,627.975,425.236,619.885,355.911z
		 M461.663,425.297c3.778-24.587,13.584-38.622,17.654-41.116c2.095,2.616,4.929,15.153,0.864,35.427
		c-3.603,17.97-11.573,29.848-16.379,34.401C461.83,449.123,459.493,439.419,461.663,425.297z"/>
	<path class="st0" d="M735.415,272.401c-31.753,0-62.073,22.767-75.448,56.65c-11.03,27.946-29.344,108.813-9.405,143.566
		c-5.776,1.526-11.22,3.925-15.968,7.163c-18.293,12.472-28.287,34.745-25.463,56.742c2.56,19.926,14.908,35.687,33.032,42.159
		c6.99,2.496,14.123,3.763,21.199,3.763c16.399,0,32.088-6.993,43.042-19.185c10.722-11.932,15.93-27.551,14.291-42.852
		c-1.498-13.978-7.074-24.789-14.758-32.744c39.488-17.942,75.125-81.778,84.358-139.806c4.635-29.135-4.351-46.919-12.707-56.709
		C767.271,279.059,752.293,272.401,735.415,272.401z"/>
	<path class="st1" d="M630.249,354.703c-9.544-81.8-71.13-110.945-125.582-110.945c-46.848,0-93.713,21.162-121.373,54.374
		c-2.331-50.804-19.761-79.568-52.033-85.675c-4.691-0.885-9.452-1.335-14.15-1.335c-22.578,0-43.837,9.975-61.478,28.845
		c-11.434,12.23-21.029,27.757-28.654,46.332c-28.142-46.729-60.32-70.385-95.854-70.385c-10.658,0-21.234,2.263-31.432,6.727
		C30.48,252.918-3.441,394.462,2.71,482.612c4.607,66.053,32.194,87.372,54.525,93.626c9.294,2.604,18.544,3.923,27.495,3.923
		c25.43,0,48.505-10.437,66.73-30.181c8.212-8.894,15.37-19.561,21.399-31.864c24.221,43.898,53.292,65.746,88.531,66.627
		l1.059,0.01c30.994-0.014,57.134-25.848,79.658-78.864c2.227,7.631,4.969,14.838,8.216,21.583
		c19.741,41.009,55.873,63.511,104.493,65.073c1.709,0.055,3.42,0.082,5.125,0.082c46.071,0,88.981-19.703,120.826-55.48
		c7.548-8.48,14.298-17.641,20.231-27.406c-2.602,9.021-3.438,18.586-2.215,28.11c3.071,23.901,17.976,42.838,39.87,50.655
		c8.12,2.9,16.434,4.37,24.709,4.37c19.355,0,37.873-8.254,50.803-22.646c12.697-14.128,18.859-32.694,16.905-50.936
		c-1.118-10.437-4.349-20.052-9.477-28.376c41.017-26.597,70.874-90.312,79.005-141.424c5.262-33.062-5.294-53.662-15.075-65.122
		c-12.334-14.449-30.129-22.407-50.11-22.407c-35.997,0-70.217,25.42-85.154,63.253c-9.204,23.321-28.138,98.179-13.675,141.43
		c-2.765,1.317-5.394,2.823-7.87,4.51c-5.795,3.951-10.853,8.759-15.128,14.152C629.975,447.421,635.854,402.725,630.249,354.703z"
		/>
	<g>
		<path d="M459.941,582.195c-1.595,0-3.194-0.026-4.793-0.076c-44.482-1.429-77.478-21.89-95.424-59.17
			c-31.935-66.347-5.264-169.057,27.915-213.487c25.073-33.575,71.009-55.27,117.027-55.27c49.962,0,106.467,26.722,115.219,101.718
			c8.089,69.325-8.571,131.226-46.911,174.299C543.134,563.733,502.992,582.195,459.941,582.195z M479.317,384.181
			c-4.07,2.494-13.876,16.529-17.654,41.116c-2.17,14.122,0.167,23.826,2.139,28.712c4.806-4.552,12.776-16.431,16.379-34.401
			C484.246,399.335,481.412,386.797,479.317,384.181z"/>
		<path d="M459.937,574.369c-1.508,0-3.024-0.024-4.54-0.073c-41.378-1.33-72.023-20.259-88.622-54.742
			c-30.66-63.697-4.861-162.567,27.134-205.41c23.647-31.665,67.121-52.126,110.757-52.126c46.595,0,99.289,24.904,107.445,94.8
			c7.827,67.076-8.148,126.807-44.983,168.189c-28.334,31.83-66.402,49.362-107.188,49.362
			C459.94,574.369,459.94,574.369,459.937,574.369z M460.952,463.713c0.22,0.036,0.436,0.052,0.652,0.052
			c7.047,0,21.111-16.998,26.249-42.618c4.483-22.353,2.024-41.448-5.722-44.417c-1.055-0.404-1.983-0.601-2.837-0.601
			c-7.515,0-20.8,18.254-25.368,47.98C450.417,446.948,457.521,461.693,460.952,463.713z"/>
		<path d="M261.503,574.309c-35.822-0.895-65.224-27.585-89.575-81.431c-6.921,20.485-16.343,37.254-28.134,50.024
			c-16.199,17.548-36.624,26.825-59.064,26.825c-8,0-16.304-1.19-24.681-3.536c-19.101-5.351-42.746-24.321-46.931-84.305
			c-5.797-83.081,26.677-221.654,90.756-249.687c8.872-3.882,18.04-5.85,27.25-5.85c36.259,0,69.173,28.715,98.016,85.43
			c7.889-26.958,19.508-49.064,34.114-64.686c15.616-16.705,34.239-25.536,53.856-25.536c4.057,0,8.167,0.389,12.214,1.154
			c34.841,6.592,49.019,47.216,42.139,120.742c-4.374,46.739-16.77,100.521-33.158,143.867
			c-22.13,58.53-46.943,86.988-75.861,86.999L261.503,574.309z"/>
		<path d="M261.599,566.483c-45.374-1.135-72.897-49.803-91.119-97.499c-5.973,26.366-16.263,51.092-32.435,68.609
			c-14.68,15.902-33.116,24.308-53.314,24.308c-7.29,0-14.883-1.093-22.57-3.245c-16.676-4.672-37.367-21.876-41.234-77.315
			c-5.506-78.929,26.02-215.694,86.086-241.972c7.877-3.447,15.989-5.194,24.113-5.194c45.085,0,78.737,52.047,100.367,100.815
			c7.008-34.682,19.883-63.731,37.479-82.553c14.099-15.082,30.745-23.054,48.139-23.054c3.572,0,7.191,0.343,10.759,1.018
			c30.196,5.713,42.242,43.504,35.802,112.324c-4.313,46.08-16.532,99.1-32.686,141.828c-20.843,55.128-43.263,81.931-68.543,81.941
			L261.599,566.483z"/>
		<path d="M663.361,582.444c-7.076,0-14.208-1.266-21.199-3.763c-18.124-6.472-30.471-22.233-33.032-42.159
			c-2.824-21.997,7.17-44.27,25.463-56.742c8.576-5.848,19.378-9.069,30.417-9.069c24.254,0,52.025,15.552,55.684,49.696
			c1.639,15.301-3.569,30.92-14.291,42.852C695.449,575.452,679.761,582.444,663.361,582.444z"/>
		<path d="M663.361,574.619c-6.179,0-12.425-1.113-18.567-3.307c-15.294-5.462-25.724-18.841-27.901-35.787
			c-2.453-19.106,6.226-38.449,22.109-49.279c7.291-4.971,16.528-7.709,26.008-7.709c20.867,0,44.759,13.364,47.902,42.704
			c1.404,13.096-3.091,26.505-12.331,36.788C691.109,568.572,677.543,574.619,663.361,574.619z"/>
		<path d="M684.663,492.615c-2.135,0-4.275-0.152-6.362-0.45c-11.526-1.646-21.338-8.512-27.626-19.333
			c-20.131-34.638-1.76-115.779,9.292-143.781c13.375-33.884,43.695-56.65,75.448-56.65c16.878,0,31.856,6.658,42.173,18.747
			c8.356,9.79,17.342,27.574,12.707,56.709C779.422,416.19,731.938,492.615,684.663,492.615z"/>
		<path d="M684.663,484.789c-1.767,0-3.535-0.125-5.255-0.371c-9.106-1.3-16.907-6.812-21.967-15.518
			c-18.519-31.863-0.488-110.898,9.805-136.975c12.206-30.922,39.601-51.698,68.169-51.698c14.551,0,27.414,5.683,36.221,16.002
			c7.286,8.536,15.096,24.21,10.93,50.399C772.4,410.519,727.42,484.789,684.663,484.789z"/>
		<g>
			<path class="st0" d="M592.402,353.596c-12.209-104.633-141.899-95.172-187.307-34.368
				c-42.541,56.965-72.522,228.763,48.246,232.642C535.643,554.514,606.592,475.204,592.402,353.596z M454.592,475.306
				c-14.896-3.117-24.918-28.911-20.29-59.029c5.553-36.138,25.309-70.832,51.384-60.839c20.704,7.935,21.44,38.951,16.44,63.878
				C495.817,450.763,475.988,479.783,454.592,475.306z"/>
			<path class="st0" d="M64.196,536.861c-59.045-16.54-21.413-256.958,47.109-286.936
				c68.522-29.978,120.983,128.479,129.548,167.022c-7.13-105.783,33.23-183.925,81.208-174.848
				c59.427,11.243-6.328,303.363-62.64,301.955c-64.246-1.606-89.946-141.343-102.793-167.039
				C163.052,457.323,135.747,556.904,64.196,536.861z"/>
			<path class="st0" d="M647.977,549.882c-21.745-7.766-22.605-40.5-1.884-54.628c15.348-10.465,44.268-3.767,47.093,22.605
				C695.352,538.075,674.349,559.3,647.977,549.882z"/>
			<path class="st0" d="M679.233,462.157c-26.837-3.834-12.811-93.078,1.419-129.128c21.285-53.922,92.234-56.759,82.301,5.676
				C753.021,401.141,709.032,466.414,679.233,462.157z"/>
		</g>
	</g>
</g>
</svg>
