<?xml version="1.0" encoding="utf-8"?>
<!-- Generator: Adobe Illustrator 22.1.0, SVG Export Plug-In . SVG Version: 6.00 Build 0)  -->
<svg version="1.1" id="_x30_" xmlns="http://www.w3.org/2000/svg" xmlns:xlink="http://www.w3.org/1999/xlink" x="0px" y="0px"
	 viewBox="0 0 804 804" style="enable-background:new 0 0 804 804;" xml:space="preserve">
<style type="text/css">
	.st0{fill:#FF1515;}
	.st1{fill:#FFFFFF;}
	.st2{fill:#492805;}
	.st3{fill:#FFE150;}
</style>
<g>
	<path class="st0" d="M26.699,515.551c18.813,39.083,53.469,60.537,100.224,62.039c1.695,0.054,3.391,0.081,5.083,0.081
		c45.635,0,88.204-19.591,119.868-55.162c17.523-19.686,30.784-43.092,39.556-69.242c-1.647,17.279-2.672,32.895-2.672,42.25
		c0,0.788,0.06,1.528,0.077,2.304c-0.049,1.786-0.077,3.444-0.077,4.936c0,42.992,23.738,69.7,61.951,69.703
		c2.378,0,4.846-0.103,7.338-0.304c44.751-3.629,61.654-43.263,68.992-72.456c8.134,16.962,16.442,31.046,24.101,40.739
		c18.224,23.058,41.479,35.758,65.482,35.758c17.567,0,34.177-7.089,45.57-19.449c10.694-11.604,15.885-26.578,14.613-42.166
		c-2.058-25.215-20.404-59.732-39.305-91.38c1.399-0.595,2.637-1.134,3.728-1.62c45.706-20.399,71.555-54.413,70.92-93.322
		c-0.599-36.683-26.153-60.386-65.103-60.386c-1.399,0-2.812,0.049-4.226,0.112c-1.006-0.035-1.985-0.112-3.013-0.112
		c-12.437,0-25.704,2.658-37.354,7.486c-14.43,5.979-29.462,14.554-44.158,24.177c-1.551-24.891-8.083-43.831-19.52-56.413
		c-9.992-10.986-23.107-16.794-37.926-16.794c-1.3,0-2.612,0.072-3.928,0.165c-1.097-0.078-2.191-0.165-3.312-0.165
		c-10.837,0-22.47,3.74-33.643,10.816c-33.046,20.929-46.496,82.792-55.991,130.757c-0.154-10.389-0.837-20.977-2.093-31.741
		c-9.207-78.897-68.669-107.008-121.246-107.008c-0.883,0-1.763,0.063-2.645,0.078c-1.537-0.051-3.069-0.078-4.595-0.078
		c-46.595,0-92.987,21.807-118.19,55.555C30.988,317.14,9.64,382.537,11.81,441.727C11.896,468.247,16.29,493.926,26.699,515.551z
		 M157.855,399.933c-4.436,22.113-15.164,39.738-24.486,46.046c-2.671-5.374-6.313-17.204-3.507-35.461
		c4.906-31.931,18.477-48.398,23.188-48.398c0.363,0,0.879,0.125,1.494,0.361c3.071,1.177,5.267,7.764,5.704,17.512
		C160.013,386.526,159.167,393.396,157.855,399.933z"/>
	<path class="st0" d="M728.121,241.648c-24.903,0-56.678,16.835-71.524,54.445c-7.955,20.154-20.26,69.678-19.2,108.465
		c-0.199,19.214,2.306,36.826,9.336,48.921c0.812,1.397,1.665,2.672,2.538,3.879c-8.935,0.405-17.528,3.124-24.407,7.814
		c-15.571,10.618-24.422,29.151-23.124,47.884c-0.226,3.709-0.141,7.455,0.339,11.196c2.584,20.121,15.014,36.021,33.252,42.533
		c7.156,2.557,14.451,3.853,21.682,3.853c16.681,0,32.638-7.111,43.779-19.51c10.89-12.119,16.183-27.954,14.524-43.448
		c-1.799-16.781-9.352-29.123-19.453-37.399c43.873-14.509,84.819-86.313,95.156-151.29c4.797-30.151-4.364-48.392-12.894-58.384
		c-10.434-12.227-25.621-18.96-42.764-18.96c-1.29,0-2.611,0.081-3.932,0.163C730.33,241.746,729.241,241.648,728.121,241.648z"/>
	<path class="st1" d="M126.615,587.238c1.799,0.057,3.597,0.086,5.392,0.086c48.427,0,93.557-20.739,127.078-58.397
		c7.386-8.298,14.068-17.235,20.022-26.766c-0.001,0.202-0.001,0.401-0.001,0.596c0,48.203,28.106,79.353,71.603,79.355
		c2.633,0,5.364-0.113,8.118-0.336c23.198-1.882,52.703-13.823,70.312-57.21c4.919,8.599,9.789,15.986,14.428,21.858
		c20.093,25.423,46.038,39.425,73.055,39.425c20.256,0,39.452-8.223,52.668-22.56c12.543-13.611,18.629-31.187,17.136-49.492
		c-2.07-25.359-18.918-58.319-35.159-86.256c45.596-22.332,71.205-58.28,70.533-99.44c-0.682-41.798-30.723-69.881-74.754-69.881
		c-1.398,0-2.808,0.044-4.221,0.103l-0.574-0.026c-0.806-0.04-1.612-0.077-2.444-0.077c-13.677,0-28.255,2.92-41.049,8.221
		c-10.125,4.195-20.868,9.712-32.564,16.732c-3.19-19.608-9.984-35.222-20.277-46.545c-11.871-13.053-27.456-19.952-45.067-19.952
		c-1.413,0-2.78,0.068-3.912,0.141c-1.1-0.077-2.203-0.141-3.327-0.141c-12.668,0-26.088,4.257-38.808,12.313
		c-23.631,14.967-37.681,46.138-47.799,82.41c-18.065-67.24-75.234-91.9-126.366-91.9c-0.633,0-1.266,0.022-1.898,0.048
		l-0.736,0.025c-1.541-0.048-3.076-0.073-4.606-0.073c-49.534,0-98.962,23.328-125.924,59.433
		C23.199,311.438-0.147,377.845,2.158,441.92c0.117,30.04,5.447,56.218,15.844,77.818
		C38.475,562.272,76.033,585.612,126.615,587.238z M139.403,411.984c2.458-15.997,7.147-27.222,11.056-33.862
		c0.051,0.603,0.094,1.243,0.128,1.918c-0.232,5.767-0.989,11.979-2.196,17.995c-2.105,10.493-5.806,19.834-9.859,26.978
		C138.424,421.282,138.641,416.941,139.403,411.984z"/>
	<path class="st1" d="M735.361,231.995c-1.287,0-2.599,0.066-3.916,0.144l-0.205-0.013c-1.032-0.07-2.066-0.131-3.119-0.131
		c-28.172,0-63.99,18.723-80.503,60.553c-8.638,21.886-20.913,72.604-19.876,112.09c-0.174,18.458,2.077,33.701,6.704,45.473
		c-5.417,1.611-10.483,3.992-15.021,7.086c-18.221,12.424-28.664,33.795-27.357,55.894c-0.223,4.24-0.077,8.405,0.436,12.391
		c3.055,23.796,17.853,42.635,39.577,50.393c8.201,2.93,16.588,4.416,24.931,4.416c19.416,0,37.99-8.278,50.958-22.712
		c12.718-14.151,18.893-32.715,16.942-50.928c-1.354-12.636-5.68-23.883-12.677-33.174c43.767-24.687,79.113-95.127,88.316-152.97
		c5.375-33.785-5.236-54.63-15.083-66.165C773.17,239.932,755.376,231.995,735.361,231.995z"/>
	<g>
		<g>
			<path class="st2" d="M132.007,577.672c-1.692,0-3.388-0.027-5.083-0.081c-46.755-1.502-81.412-22.956-100.224-62.039
				c-33.561-69.721-4.68-181.568,29.947-227.936c26.522-35.515,75.191-58.463,123.991-58.463
				c52.577,0,112.039,28.111,121.247,107.008c8.659,74.213-9.101,140.393-50.008,186.349
				C220.211,558.081,177.641,577.672,132.007,577.672z M153.05,362.121c-4.711,0-18.282,16.467-23.188,48.398
				c-3.324,21.627,2.407,34.272,4.844,37.801c4.998-1.8,18.032-16.358,23.29-42.57c4.604-22.955,1.876-41.227-3.452-43.269
				C153.929,362.246,153.413,362.121,153.05,362.121z"/>
			<path class="st2" d="M287.452,329.76c-8.656-74.178-64.592-100.607-114.055-100.607c-46.595,0-92.987,21.807-118.19,55.555
				C21.651,329.642-6.416,437.865,25.983,505.172c17.567,36.497,50.05,56.533,93.933,57.943c1.618,0.052,3.237,0.078,4.847,0.078
				c0.002,0,0.001,0,0.004,0c43.538,0,84.19-18.729,114.461-52.736C278.742,466.065,295.869,401.892,287.452,329.76z
				 M157.855,399.934c-5.578,27.806-21.113,48.583-31.278,48.583c-0.51,0-1.01-0.052-1.527-0.16
				c-4.152-0.87-13.898-18.096-9.583-46.177c5.012-32.623,19.737-54.538,30.344-54.538c1.275,0,2.611,0.275,4.085,0.84
				C161.559,352.951,162.197,378.286,157.855,399.934z"/>
			<path class="st2" d="M516.622,576.196c-24.003,0-47.258-12.7-65.482-35.758c-7.659-9.693-15.967-23.777-24.101-40.739
				c-7.339,29.194-24.241,68.827-68.992,72.456c-2.492,0.201-4.961,0.304-7.339,0.304c-38.212-0.002-61.951-26.711-61.951-69.703
				c0-22.722,5.94-81.747,12.25-113.3c0.584-2.923,1.187-5.979,1.807-9.142c9.84-50.006,23.315-118.486,60.518-142.047
				c12.333-7.81,25.305-11.939,37.516-11.939c14.82,0,27.934,5.808,37.926,16.794c11.928,13.12,18.536,33.139,19.706,59.629
				c18.028-12.02,33.964-20.843,48.44-26.842c12.508-5.183,26.758-8.037,40.125-8.037c38.95,0,64.504,23.703,65.103,60.386
				c0.635,38.909-25.213,72.923-70.92,93.322c-1.091,0.487-2.329,1.025-3.728,1.62c18.901,31.648,37.246,66.165,39.305,91.38
				c1.271,15.588-3.919,30.562-14.613,42.166C550.799,569.108,534.19,576.196,516.622,576.196z"/>
			<path class="st2" d="M539.807,267.874c-12.437,0-25.704,2.658-37.353,7.486c-19.109,7.917-39.276,20.383-58.319,33.813
				c0.715-31.49-5.282-54.48-17.955-68.417c-8.582-9.437-19.844-14.426-32.57-14.426c-10.837,0-22.47,3.74-33.643,10.816
				c-34.574,21.896-47.701,88.613-57.287,137.327c-0.623,3.171-1.227,6.234-1.812,9.166c-6.237,31.189-12.109,89.469-12.109,111.88
				c0,39.11,20.451,62.461,54.706,62.463c0.001,0,0.004,0,0.005,0c2.182,0,4.455-0.094,6.753-0.28
				c52.353-4.245,62.914-65.298,66.89-88.283c0.029-0.168,0.069-0.354,0.1-0.525c9.671,23.264,21.384,45.918,32.368,59.817
				c16.823,21.286,38.061,33.008,59.803,33.008c15.551,0,30.22-6.238,40.246-17.116c9.309-10.099,13.826-23.122,12.721-36.67
				c-2.069-25.342-22.881-62.895-42.629-95.438c4.568-1.858,8.443-3.48,11.317-4.763c42.93-19.159,67.218-50.721,66.632-86.592
				C597.135,288.283,574.962,267.874,539.807,267.874z"/>
			<path class="st2" d="M657.013,570.64c-7.231,0-14.526-1.296-21.682-3.853c-18.238-6.513-30.668-22.412-33.252-42.533
				c-2.879-22.416,7.306-45.113,25.946-57.822c8.657-5.905,19.589-9.155,30.783-9.155c24.614,0,52.795,15.774,56.507,50.406
				c1.659,15.494-3.634,31.329-14.524,43.448C689.651,563.529,673.694,570.64,657.013,570.64z"/>
			<path class="st2" d="M651.569,457.276c-9.753,0-19.237,2.804-26.705,7.897c-16.413,11.19-25.38,31.177-22.844,50.919
				c2.229,17.362,12.886,31.059,28.507,36.637c6.375,2.278,12.851,3.431,19.247,3.431c14.629,0,28.623-6.236,38.394-17.109
				c9.518-10.593,14.152-24.384,12.71-37.838C697.642,471.026,673.049,457.276,651.569,457.276z"/>
			<path class="st2" d="M680.176,472.966c-2.13,0-4.264-0.151-6.343-0.448c-7.977-1.139-19.153-5.367-27.1-19.039
				c-21.185-36.451-1.435-122.897,10.369-152.805c16.096-40.775,50.903-59.026,78.258-59.026c17.143,0,32.33,6.733,42.764,18.96
				c8.53,9.992,17.691,28.233,12.894,58.384C779.455,391.676,729.595,472.966,680.176,472.966z"/>
			<path class="st2" d="M765.379,258.068c-9.036-10.588-22.269-16.42-37.258-16.42c-24.904,0-56.678,16.835-71.524,54.445
				c-11.05,27.996-30.503,112.684-10.844,146.509c6.489,11.164,15.471,14.597,21.865,15.51c1.74,0.249,3.53,0.375,5.319,0.375
				c45.149,0,92.814-79.49,103.693-147.872C780.993,283.191,772.92,266.903,765.379,258.068z"/>
		</g>
		<g>
			<path class="st3" d="M271.632,331.606c-13.275-113.771-154.291-103.483-203.664-37.369
				c-46.256,61.94-78.855,248.74,52.459,252.958C209.916,550.07,287.061,463.835,271.632,331.606z M121.787,463.945
				c-16.197-3.39-27.094-31.435-22.062-64.184c6.038-39.293,27.52-77.018,55.871-66.152c22.512,8.628,23.313,42.353,17.876,69.456
				C166.613,437.258,145.051,468.813,121.787,463.945z"/>
			<g>
				<path class="st3" d="M417.776,397.239c0,0,3.801-12.087,9.368-70.488c8.096-84.942-27.785-95.703-58.657-76.151
					c-30.872,19.552-43.271,92.5-52.003,136.16c-6.108,30.54-11.799,88.176-11.799,108.757s6.174,49.395,44.25,46.308
					c38.075-3.087,47.884-48.534,52.482-75.122C404.768,447.331,416.747,415.762,417.776,397.239z"/>
				<path class="st3" d="M377.325,381.121c19.735-13.661,81.017-70.246,131.224-91.048c27.191-11.266,72.508-10.911,73.197,31.325
					c0.596,36.538-30.141,59.713-57.198,71.788c-27.057,12.075-143.902,54.749-156.85,61.78
					C354.749,461.998,377.325,381.121,377.325,381.121z"/>
				<path class="st3" d="M478.901,376.282c16.465,28.814,64.742,98.24,67.575,132.946c2.745,33.623-46.618,57.413-84.4,9.607
					c-17.521-22.169-39.06-72.696-47.285-106.669C413.58,407.164,478.901,376.282,478.901,376.282z"/>
			</g>
			<path class="st3" d="M635.883,537.731c-23.644-8.444-24.579-44.037-2.048-59.398c16.689-11.379,48.133-4.097,51.206,24.579
				C687.396,524.893,664.558,547.972,635.883,537.731z"/>
			<path class="st3" d="M669.869,442.345c-29.181-4.169-13.93-101.206,1.543-140.404c23.144-58.63,100.289-61.716,89.488,6.172
				C750.1,376,702.27,446.974,669.869,442.345z"/>
		</g>
	</g>
</g>
</svg>
