{
  "accessors": [
    {
      "bufferView": 2,
      "componentType": 5126,
      "count": 16766,
      "max": [
        0.49283766746520996,
        -0.67900335788726807,
        0.60413283109664917
      ],
      "min": [
        -0.20123371481895447,
        -0.8077930212020874,
        0.32063359022140503
      ],
      "type": "VEC3"
    },
    {
      "bufferView": 2,
      "byteOffset": 201192,
      "componentType": 5126,
      "count": 16766,
      "max": [
        0.99988645315170288,
        0.99985575675964355,
        0.99991720914840698
      ],
      "min": [
        -0.99988532066345215,
        -0.99985408782958984,
        -0.99991685152053833
      ],
      "type": "VEC3"
    },
    {
      "bufferView": 3,
      "componentType": 5126,
      "count": 16766,
      "max": [
        0.25882354378700256,
        0.18823529779911041,
        0.10196078568696976,
        1
      ],
      "min": [
        0.25882354378700256,
        0.18823529779911041,
        0.10196078568696976,
        1
      ],
      "type": "VEC4"
    },
    {
      "bufferView": 1,
      "componentType": 5126,
      "count": 16766,
      "max": [
        1,
        1
      ],
      "min": [
        0,
        0
      ],
      "type": "VEC2"
    },
    {
      "bufferView": 0,
      "componentType": 5125,
      "count": 96768,
      "max": [
        16765
      ],
      "min": [
        0
      ],
      "type": "SCALAR"
    },
    {
      "bufferView": 2,
      "byteOffset": 402384,
      "componentType": 5126,
      "count": 8383,
      "max": [
        0.25798946619033813,
        -0.79761350154876709,
        0.50055539608001709
      ],
      "min": [
        0.017263969406485558,
        -0.90602368116378784,
        0.37264838814735413
      ],
      "type": "VEC3"
    },
    {
      "bufferView": 2,
      "byteOffset": 502980,
      "componentType": 5126,
      "count": 8383,
      "max": [
        0.99980258941650391,
        0.99999922513961792,
        0.99995118379592896
      ],
      "min": [
        -0.99972355365753174,
        -0.99954324960708618,
        -0.99972665309906006
      ],
      "type": "VEC3"
    },
    {
      "bufferView": 3,
      "byteOffset": 268256,
      "componentType": 5126,
      "count": 8383,
      "max": [
        1,
        0.65882354974746704,
        0.25882354378700256,
        1
      ],
      "min": [
        0.86274510622024536,
        0.49411764740943909,
        0.058823529630899429,
        1
      ],
      "type": "VEC4"
    },
    {
      "bufferView": 1,
      "byteOffset": 134128,
      "componentType": 5126,
      "count": 8383,
      "max": [
        1,
        1
      ],
      "min": [
        0,
        0
      ],
      "type": "VEC2"
    },
    {
      "bufferView": 0,
      "byteOffset": 387072,
      "componentType": 5125,
      "count": 48384,
      "max": [
        8382
      ],
      "min": [
        0
      ],
      "type": "SCALAR"
    },
    {
      "bufferView": 2,
      "byteOffset": 603576,
      "componentType": 5126,
      "count": 6414,
      "max": [
        0.34591016173362732,
        -0.3633137047290802,
        -0.93620884418487549
      ],
      "min": [
        -0.40342757105827332,
        -0.85689342021942139,
        -1.0908514261245728
      ],
      "type": "VEC3"
    },
    {
      "bufferView": 2,
      "byteOffset": 680544,
      "componentType": 5126,
      "count": 6414,
      "max": [
        0.99798417091369629,
        0.99900370836257935,
        0.99995040893554688
      ],
      "min": [
        -0.99942898750305176,
        -0.99990248680114746,
        -0.99999946355819702
      ],
      "type": "VEC3"
    },
    {
      "bufferView": 3,
      "byteOffset": 402384,
      "componentType": 5126,
      "count": 6414,
      "max": [
        1,
        0.65882354974746704,
        0.25882354378700256,
        1
      ],
      "min": [
        0.84705883264541626,
        0.47450980544090271,
        0.039215687662363052,
        1
      ],
      "type": "VEC4"
    },
    {
      "bufferView": 1,
      "byteOffset": 201192,
      "componentType": 5126,
      "count": 6414,
      "max": [
        0.98925000429153442,
        0.95507001876831055
      ],
      "min": [
        0.0019499999471008778,
        0.0019499999471008778
      ],
      "type": "VEC2"
    },
    {
      "bufferView": 0,
      "byteOffset": 580608,
      "componentType": 5125,
      "count": 18840,
      "max": [
        6413
      ],
      "min": [
        0
      ],
      "type": "SCALAR"
    },
    {
      "bufferView": 2,
      "byteOffset": 757512,
      "componentType": 5126,
      "count": 17767,
      "max": [
        1.2595871686935425,
        0.12836852669715881,
        0.8226393461227417
      ],
      "min": [
        -1.1512320041656494,
        -0.65413522720336914,
        -0.4114622175693512
      ],
      "type": "VEC3"
    },
    {
      "bufferView": 2,
      "byteOffset": 970716,
      "componentType": 5126,
      "count": 17767,
      "max": [
        0.99984985589981079,
        0.99970525503158569,
        0.99997693300247192
      ],
      "min": [
        -0.99992424249649048,
        -0.9999728798866272,
        -0.99906128644943237
      ],
      "type": "VEC3"
    },
    {
      "bufferView": 3,
      "byteOffset": 505008,
      "componentType": 5126,
      "count": 17767,
      "max": [
        0.98823529481887817,
        0.94901961088180542,
        0.7137255072593689,
        1
      ],
      "min": [
        0.98823529481887817,
        0.94901961088180542,
        0.7137255072593689,
        1
      ],
      "type": "VEC4"
    },
    {
      "bufferView": 1,
      "byteOffset": 252504,
      "componentType": 5126,
      "count": 17767,
      "max": [
        0.99414002895355225,
        0.92577999830245972
      ],
      "min": [
        0.0019499999471008778,
        0.0019499999471008778
      ],
      "type": "VEC2"
    },
    {
      "bufferView": 0,
      "byteOffset": 655968,
      "componentType": 5125,
      "count": 57114,
      "max": [
        17766
      ],
      "min": [
        0
      ],
      "type": "SCALAR"
    },
    {
      "bufferView": 2,
      "byteOffset": 1183920,
      "componentType": 5126,
      "count": 2466,
      "max": [
        1.4346494674682617,
        0.19391629099845886,
        1.5445668697357178
      ],
      "min": [
        0.85918790102005005,
        -0.60861611366271973,
        0.58150601387023926
      ],
      "type": "VEC3"
    },
    {
      "bufferView": 2,
      "byteOffset": 1213512,
      "componentType": 5126,
      "count": 2466,
      "max": [
        0.99820137023925781,
        0.99990606307983398,
        0.99868941307067871
      ],
      "min": [
        -0.99985098838806152,
        -0.99986261129379272,
        -0.99437952041625977
      ],
      "type": "VEC3"
    },
    {
      "bufferView": 3,
      "byteOffset": 789280,
      "componentType": 5126,
      "count": 2466,
      "max": [
        0.97647058963775635,
        0.9529411792755127,
        0.96470588445663452,
        1
      ],
      "min": [
        0.56862747669219971,
        0.26666668057441711,
        0.5372549295425415,
        1
      ],
      "type": "VEC4"
    },
    {
      "bufferView": 0,
      "byteOffset": 884424,
      "componentType": 5125,
      "count": 14076,
      "max": [
        2465
      ],
      "min": [
        0
      ],
      "type": "SCALAR"
    },
    {
      "bufferView": 2,
      "byteOffset": 1243104,
      "componentType": 5126,
      "count": 41278,
      "max": [
        1.1620059013366699,
        1.2465379238128662,
        1.1594653129577637
      ],
      "min": [
        -1.2286052703857422,
        -1.0943646430969238,
        -1.0963557958602905
      ],
      "type": "VEC3"
    },
    {
      "bufferView": 2,
      "byteOffset": 1738440,
      "componentType": 5126,
      "count": 41278,
      "max": [
        0.99994730949401855,
        0.99325859546661377,
        0.99987936019897461
      ],
      "min": [
        -0.99981170892715454,
        -0.99993836879730225,
        -0.99999988079071045
      ],
      "type": "VEC3"
    },
    {
      "bufferView": 3,
      "byteOffset": 828736,
      "componentType": 5126,
      "count": 41278,
      "max": [
        0.98823529481887817,
        0.94901961088180542,
        0.7137255072593689,
        1
      ],
      "min": [
        0.86274510622024536,
        0.67058825492858887,
        0.30588236451148987,
        1
      ],
      "type": "VEC4"
    },
    {
      "bufferView": 1,
      "byteOffset": 394640,
      "componentType": 5126,
      "count": 41278,
      "max": [
        0.99414002895355225,
        0.78905999660491943
      ],
      "min": [
        0.0019499999471008778,
        0.0019499999471008778
      ],
      "type": "VEC2"
    },
    {
      "bufferView": 0,
      "byteOffset": 940728,
      "componentType": 5125,
      "count": 135222,
      "max": [
        41277
      ],
      "min": [
        0
      ],
      "type": "SCALAR"
    }
  ],
  "asset": {
    "extras": {
      "author": "4licia (https://sketchfab.com/4licia)",
      "license": "CC-BY-4.0 (http://creativecommons.org/licenses/by/4.0/)",
      "source": "https://sketchfab.com/3d-models/little-chick-3-d76b6552fafa4fe781f662080a092067",
      "title": "Little Chick <3"
    },
    "generator": "Sketchfab-8.55.0",
    "version": "2.0"
  },
  "bufferViews": [
    {
      "buffer": 0,
      "byteLength": 1481616,
      "byteOffset": 0,
      "name": "floatBufferViews",
      "target": 34963
    },
    {
      "buffer": 0,
      "byteLength": 724864,
      "byteOffset": 1481616,
      "byteStride": 8,
      "name": "floatBufferViews",
      "target": 34962
    },
    {
      "buffer": 0,
      "byteLength": 2233776,
      "byteOffset": 2206480,
      "byteStride": 12,
      "name": "floatBufferViews",
      "target": 34962
    },
    {
      "buffer": 0,
      "byteLength": 1489184,
      "byteOffset": 4440256,
      "byteStride": 16,
      "name": "floatBufferViews",
      "target": 34962
    }
  ],
  "buffers": [
    {
      "byteLength": 5929440,
      "uri": "scene.bin"
    }
  ],
  "extensionsRequired": [
    "KHR_materials_pbrSpecularGlossiness"
  ],
  "extensionsUsed": [
    "KHR_materials_pbrSpecularGlossiness"
  ],
  "materials": [
    {
      "doubleSided": true,
      "emissiveFactor": [
        0,
        0,
        0
      ],
      "extensions": {
        "KHR_materials_pbrSpecularGlossiness": {
          "diffuseFactor": [
            0.80000000000000004,
            0.80000000000000004,
            0.80000000000000004,
            1
          ],
          "glossinessFactor": 0.37925612989719171,
          "specularFactor": [
            0.16554182108665169,
            0.16554182108665169,
            0.16554182108665169
          ]
        }
      },
      "name": "defaultMat"
    },
    {
      "doubleSided": true,
      "extensions": {
        "KHR_materials_pbrSpecularGlossiness": {
          "diffuseFactor": [
            1,
            1,
            1,
            1
          ],
          "glossinessFactor": 0.9363506240873436,
          "specularFactor": [
            0.32334519807891932,
            0.32334519807891932,
            0.32334519807891932
          ]
        }
      },
      "name": "material_0"
    },
    {
      "doubleSided": true,
      "emissiveFactor": [
        0,
        0,
        0
      ],
      "extensions": {
        "KHR_materials_pbrSpecularGlossiness": {
          "diffuseFactor": [
            0.80000000000000004,
            0.80000000000000004,
            0.80000000000000004,
            1
          ],
          "glossinessFactor": 0.379,
          "specularFactor": [
            0.16600000000000001,
            0.16600000000000001,
            0.16600000000000001
          ]
        }
      },
      "name": "defaultMat_0"
    },
    {
      "doubleSided": true,
      "emissiveFactor": [
        0,
        0,
        0
      ],
      "extensions": {
        "KHR_materials_pbrSpecularGlossiness": {
          "diffuseFactor": [
            0.80000000000000004,
            0.80000000000000004,
            0.80000000000000004,
            1
          ],
          "glossinessFactor": 0.69399999999999995,
          "specularFactor": [
            0.13519501781890791,
            0.13519501781890791,
            0.13519501781890791
          ]
        }
      },
      "name": "defaultMat_1"
    },
    {
      "doubleSided": true,
      "emissiveFactor": [
        0,
        0,
        0
      ],
      "extensions": {
        "KHR_materials_pbrSpecularGlossiness": {
          "diffuseFactor": [
            0.80000000000000004,
            0.80000000000000004,
            0.80000000000000004,
            1
          ],
          "glossinessFactor": 0.69357619794539338,
          "specularFactor": [
            0.25658223088988302,
            0.25658223088988302,
            0.25658223088988302
          ]
        }
      },
      "name": "defaultMat_2"
    },
    {
      "doubleSided": true,
      "emissiveFactor": [
        0,
        0,
        0
      ],
      "extensions": {
        "KHR_materials_pbrSpecularGlossiness": {
          "diffuseFactor": [
            0.80000000000000004,
            0.80000000000000004,
            0.80000000000000004,
            1
          ],
          "glossinessFactor": 0.69357619794539338,
          "specularFactor": [
            0.15947246043310292,
            0.15947246043310292,
            0.15947246043310292
          ]
        }
      },
      "name": "defaultMat_3"
    }
  ],
  "meshes": [
    {
      "primitives": [
        {
          "attributes": {
            "COLOR_0": 2,
            "NORMAL": 1,
            "POSITION": 0,
            "TEXCOORD_0": 3
          },
          "indices": 4,
          "material": 5,
          "mode": 4
        }
      ]
    },
    {
      "primitives": [
        {
          "attributes": {
            "COLOR_0": 7,
            "NORMAL": 6,
            "POSITION": 5,
            "TEXCOORD_0": 8
          },
          "indices": 9,
          "material": 4,
          "mode": 4
        }
      ]
    },
    {
      "primitives": [
        {
          "attributes": {
            "COLOR_0": 12,
            "NORMAL": 11,
            "POSITION": 10,
            "TEXCOORD_0": 13
          },
          "indices": 14,
          "material": 3,
          "mode": 4
        }
      ]
    },
    {
      "primitives": [
        {
          "attributes": {
            "COLOR_0": 17,
            "NORMAL": 16,
            "POSITION": 15,
            "TEXCOORD_0": 18
          },
          "indices": 19,
          "material": 2,
          "mode": 4
        }
      ]
    },
    {
      "primitives": [
        {
          "attributes": {
            "COLOR_0": 22,
            "NORMAL": 21,
            "POSITION": 20
          },
          "indices": 23,
          "material": 1,
          "mode": 4
        }
      ]
    },
    {
      "primitives": [
        {
          "attributes": {
            "COLOR_0": 26,
            "NORMAL": 25,
            "POSITION": 24,
            "TEXCOORD_0": 27
          },
          "indices": 28,
          "material": 0,
          "mode": 4
        }
      ]
    }
  ],
  "nodes": [
    {
      "children": [
        1
      ],
      "name": "RootNode (gltf orientation matrix)",
      "rotation": [
        -0.70710678118654746,
        -0,
        -0,
        0.70710678118654757
      ]
    },
    {
      "children": [
        2
      ],
      "matrix": [
        1,
        3.8285688045569402e-16,
        -2.832769343193999e-16,
        0,
        -3.8285688045569402e-16,
        1,
        1.6081226229577292e-16,
        0,
        2.832769343193999e-16,
        -1.6081226229577292e-16,
        1,
        0,
        -4.163336342344337e-17,
        0,
        2.7755575615628914e-17,
        1
      ],
      "name": "RootNode (model correction matrix)"
    },
    {
      "children": [
        3,
        5,
        7,
        9,
        11,
        13
      ],
      "name": "zbrush_concat.osgb.cleaner.materialmerger.gles"
    },
    {
      "children": [
        4
      ],
      "name": "/sketchfab-data/processing/models/aed4ba0a638541c2a4f44810ff44c8dc/d76b6552fafa4fe781f662080a092067/fadd4a2d568a46cc87fd14b2e32ac8be/preprocess/SubTool-5-7794169.OBJ"
    },
    {
      "mesh": 0,
      "name": ""
    },
    {
      "children": [
        6
      ],
      "name": "/sketchfab-data/processing/models/aed4ba0a638541c2a4f44810ff44c8dc/d76b6552fafa4fe781f662080a092067/fadd4a2d568a46cc87fd14b2e32ac8be/preprocess/SubTool-4-10301617.OBJ"
    },
    {
      "mesh": 1,
      "name": ""
    },
    {
      "children": [
        8
      ],
      "name": "/sketchfab-data/processing/models/aed4ba0a638541c2a4f44810ff44c8dc/d76b6552fafa4fe781f662080a092067/fadd4a2d568a46cc87fd14b2e32ac8be/preprocess/SubTool-3-9360371.OBJ"
    },
    {
      "mesh": 2,
      "name": ""
    },
    {
      "children": [
        10
      ],
      "name": "/sketchfab-data/processing/models/aed4ba0a638541c2a4f44810ff44c8dc/d76b6552fafa4fe781f662080a092067/fadd4a2d568a46cc87fd14b2e32ac8be/preprocess/SubTool-2-13219809.OBJ"
    },
    {
      "mesh": 3,
      "name": ""
    },
    {
      "children": [
        12
      ],
      "name": "/sketchfab-data/processing/models/aed4ba0a638541c2a4f44810ff44c8dc/d76b6552fafa4fe781f662080a092067/fadd4a2d568a46cc87fd14b2e32ac8be/preprocess/SubTool-1-10233600.OBJ"
    },
    {
      "mesh": 4,
      "name": ""
    },
    {
      "children": [
        14
      ],
      "name": "/sketchfab-data/processing/models/aed4ba0a638541c2a4f44810ff44c8dc/d76b6552fafa4fe781f662080a092067/fadd4a2d568a46cc87fd14b2e32ac8be/preprocess/SubTool-0-10233600.OBJ"
    },
    {
      "mesh": 5,
      "name": ""
    }
  ],
  "scene": 0,
  "scenes": [
    {
      "name": "OSG_Scene",
      "nodes": [
        0
      ]
    }
  ]
}

