{
  "accessors": [
    {
      "bufferView": 2,
      "componentType": 5126,
      "count": 20,
      "max": [
        0.22125299274921417,
        0.86035001277923584,
        2.01381516456604
      ],
      "min": [
        0.20628799498081207,
        0.020350009202957153,
        0.013539999723434448
      ],
      "type": "VEC3"
    },
    {
      "bufferView": 2,
      "byteOffset": 240,
      "componentType": 5126,
      "count": 20,
      "max": [
        0.30751407146453857,
        1,
        0.95154356956481934
      ],
      "min": [
        -0.99997556209564209,
        -1,
        -0.95151430368423462
      ],
      "type": "VEC3"
    },
    {
      "bufferView": 3,
      "componentType": 5126,
      "count": 20,
      "max": [
        0,
        0,
        0.30760464072227478,
        1
      ],
      "min": [
        -0.99971389770507812,
        -1,
        -0.075911566615104675,
        1
      ],
      "type": "VEC4"
    },
    {
      "bufferView": 1,
      "componentType": 5126,
      "count": 20,
      "max": [
        1.5752999782562256,
        0.9966999888420105
      ],
      "min": [
        -0.001500000013038516,
        -0.0065000001341104507
      ],
      "type": "VEC2"
    },
    {
      "bufferView": 0,
      "componentType": 5125,
      "count": 30,
      "max": [
        19
      ],
      "min": [
        0
      ],
      "type": "SCALAR"
    },
    {
      "bufferView": 2,
      "byteOffset": 480,
      "componentType": 5126,
      "count": 78,
      "max": [
        0.21024799346923828,
        0.87443399429321289,
        2.0300641059875488
      ],
      "min": [
        0.1556679904460907,
        0.0044339895248413086,
        0.026508999988436699
      ],
      "type": "VEC3"
    },
    {
      "bufferView": 0,
      "byteOffset": 120,
      "componentType": 5125,
      "count": 130,
      "max": [
        77
      ],
      "min": [
        0
      ],
      "type": "SCALAR"
    },
    {
      "bufferView": 2,
      "byteOffset": 1416,
      "componentType": 5126,
      "count": 6370,
      "max": [
        0.24231299757957458,
        0.87896198034286499,
        0.076221004128456116
      ],
      "min": [
        0.15429198741912842,
        0,
        0
      ],
      "type": "VEC3"
    },
    {
      "bufferView": 2,
      "byteOffset": 77856,
      "componentType": 5126,
      "count": 6370,
      "max": [
        0.99987363815307617,
        1,
        0.9999995231628418
      ],
      "min": [
        -0.9999992847442627,
        -1,
        -0.9999622106552124
      ],
      "type": "VEC3"
    },
    {
      "bufferView": 0,
      "byteOffset": 640,
      "componentType": 5125,
      "count": 12741,
      "max": [
        6369
      ],
      "min": [
        0
      ],
      "type": "SCALAR"
    },
    {
      "bufferView": 2,
      "byteOffset": 154296,
      "componentType": 5126,
      "count": 2900,
      "max": [
        0.40099698305130005,
        0.87443399429321289,
        2.0328071117401123
      ],
      "min": [
        0,
        0.0042580068111419678,
        0.0011270008981227875
      ],
      "type": "VEC3"
    },
    {
      "bufferView": 2,
      "byteOffset": 189096,
      "componentType": 5126,
      "count": 2900,
      "max": [
        1,
        1,
        1
      ],
      "min": [
        -1,
        -1,
        -1
      ],
      "type": "VEC3"
    },
    {
      "bufferView": 0,
      "byteOffset": 51604,
      "componentType": 5125,
      "count": 11913,
      "max": [
        2899
      ],
      "min": [
        0
      ],
      "type": "SCALAR"
    },
    {
      "bufferView": 2,
      "byteOffset": 223896,
      "componentType": 5126,
      "count": 4,
      "max": [
        0.22024999558925629,
        0.86035001277923584,
        2.01381516456604
      ],
      "min": [
        0.20628799498081207,
        0.020350009202957153,
        0.013863999396562576
      ],
      "type": "VEC3"
    },
    {
      "bufferView": 2,
      "byteOffset": 223944,
      "componentType": 5126,
      "count": 4,
      "max": [
        0.99997556209564209,
        -0,
        0.0069998293183743954
      ],
      "min": [
        0.99997556209564209,
        -0,
        0.0069998293183743954
      ],
      "type": "VEC3"
    },
    {
      "bufferView": 3,
      "byteOffset": 320,
      "componentType": 5126,
      "count": 4,
      "max": [
        0,
        1,
        0,
        1
      ],
      "min": [
        0,
        1,
        0,
        1
      ],
      "type": "VEC4"
    },
    {
      "bufferView": 0,
      "byteOffset": 99256,
      "componentType": 5125,
      "count": 6,
      "max": [
        3
      ],
      "min": [
        0
      ],
      "type": "SCALAR"
    }
  ],
  "asset": {
    "extras": {
      "author": "YouniqueĪdeaStudio (https://sketchfab.com/sinnervoncrawsz)",
      "license": "CC-BY-4.0 (http://creativecommons.org/licenses/by/4.0/)",
      "source": "https://sketchfab.com/models/cd021ceca4ff4c1ebc982c0f33e53efb",
      "title": "Roll-Up DEMOPHORIUS"
    },
    "generator": "Sketchfab-3.24.2",
    "version": "2.0"
  },
  "bufferViews": [
    {
      "buffer": 0,
      "byteLength": 99280,
      "byteOffset": 0,
      "name": "floatBufferViews",
      "target": 34963
    },
    {
      "buffer": 0,
      "byteLength": 160,
      "byteOffset": 99280,
      "byteStride": 8,
      "name": "floatBufferViews",
      "target": 34962
    },
    {
      "buffer": 0,
      "byteLength": 223992,
      "byteOffset": 99440,
      "byteStride": 12,
      "name": "floatBufferViews",
      "target": 34962
    },
    {
      "buffer": 0,
      "byteLength": 384,
      "byteOffset": 323432,
      "byteStride": 16,
      "name": "floatBufferViews",
      "target": 34962
    }
  ],
  "buffers": [
    {
      "byteLength": 323816,
      "uri": "scene.bin"
    }
  ],
  "images": [
    {
      "uri": "textures/Material_baseColor.jpeg"
    }
  ],
  "materials": [
    {
      "doubleSided": true,
      "emissiveFactor": [
        0,
        0,
        0
      ],
      "name": "Material",
      "pbrMetallicRoughness": {
        "baseColorFactor": [
          1,
          1,
          1,
          1
        ],
        "baseColorTexture": {
          "index": 0,
          "texCoord": 0
        },
        "metallicFactor": 0,
        "roughnessFactor": 0.59999999999999998
      }
    },
    {
      "doubleSided": true,
      "emissiveFactor": [
        0,
        0,
        0
      ],
      "name": "Material.001",
      "pbrMetallicRoughness": {
        "baseColorFactor": [
          0.64000000000000001,
          0.64000000000000001,
          0.64000000000000001,
          1
        ],
        "metallicFactor": 1,
        "roughnessFactor": 0.48718437429999994
      }
    },
    {
      "doubleSided": true,
      "emissiveFactor": [
        0,
        0,
        0
      ],
      "name": "Material.003",
      "pbrMetallicRoughness": {
        "baseColorFactor": [
          0.64000000000000001,
          0.64000000000000001,
          0.64000000000000001,
          1
        ],
        "metallicFactor": 0,
        "roughnessFactor": 0.59999999999999998
      }
    }
  ],
  "meshes": [
    {
      "primitives": [
        {
          "attributes": {
            "NORMAL": 1,
            "POSITION": 0,
            "TANGENT": 2,
            "TEXCOORD_0": 3
          },
          "indices": 4,
          "material": 0,
          "mode": 4
        }
      ]
    },
    {
      "primitives": [
        {
          "attributes": {
            "POSITION": 5
          },
          "indices": 6,
          "material": 1,
          "mode": 1
        }
      ]
    },
    {
      "primitives": [
        {
          "attributes": {
            "NORMAL": 8,
            "POSITION": 7
          },
          "indices": 9,
          "material": 1,
          "mode": 4
        }
      ]
    },
    {
      "primitives": [
        {
          "attributes": {
            "NORMAL": 11,
            "POSITION": 10
          },
          "indices": 12,
          "material": 1,
          "mode": 4
        }
      ]
    },
    {
      "primitives": [
        {
          "attributes": {
            "NORMAL": 14,
            "POSITION": 13,
            "TANGENT": 15
          },
          "indices": 16,
          "material": 2,
          "mode": 4
        }
      ]
    }
  ],
  "nodes": [
    {
      "children": [
        1
      ],
      "name": "RootNode (gltf orientation matrix)",
      "rotation": [
        -0.70710678118654746,
        -0,
        -0,
        0.70710678118654757
      ]
    },
    {
      "children": [
        2
      ],
      "name": "RootNode (model correction matrix)"
    },
    {
      "children": [
        3
      ],
      "matrix": [
        1,
        0,
        0,
        0,
        0,
        1,
        0,
        0,
        0,
        0,
        1,
        0,
        -0.24209199845790863,
        -0.4383389949798584,
        -0.032703999429941177,
        1
      ],
      "name": "ROLL-UP.obj.cleaner.materialmerger.gles"
    },
    {
      "children": [
        4,
        5,
        6,
        7,
        8
      ],
      "name": ""
    },
    {
      "mesh": 0,
      "name": ""
    },
    {
      "mesh": 1,
      "name": ""
    },
    {
      "mesh": 2,
      "name": ""
    },
    {
      "mesh": 3,
      "name": ""
    },
    {
      "mesh": 4,
      "name": ""
    }
  ],
  "samplers": [
    {
      "magFilter": 9729,
      "minFilter": 9987,
      "wrapS": 10497,
      "wrapT": 10497
    }
  ],
  "scene": 0,
  "scenes": [
    {
      "name": "OSG_Scene",
      "nodes": [
        0
      ]
    }
  ],
  "textures": [
    {
      "sampler": 0,
      "source": 0
    }
  ]
}

