{
  "accessors": [
    {
      "bufferView": 2,
      "componentType": 5126,
      "count": 1472,
      "max": [
        -12.303952217102051,
        127.13216400146484,
        257.32638549804688
      ],
      "min": [
        -125.17747497558594,
        -127.13216400146484,
        26.565376281738281
      ],
      "type": "VEC3"
    },
    {
      "bufferView": 2,
      "byteOffset": 17664,
      "componentType": 5126,
      "count": 1472,
      "max": [
        0.4312731921672821,
        1,
        0.90222150087356567
      ],
      "min": [
        -0.43127322196960449,
        -1,
        -0.9022214412689209
      ],
      "type": "VEC3"
    },
    {
      "bufferView": 1,
      "componentType": 5126,
      "count": 1472,
      "max": [
        0.99999964237213135,
        0.99999994039535522
      ],
      "min": [
        -9.6533618432204094e-08,
        -3.9390894812640909e-07
      ],
      "type": "VEC2"
    },
    {
      "bufferView": 0,
      "componentType": 5125,
      "count": 2208,
      "max": [
        1471
      ],
      "min": [
        0
      ],
      "type": "SCALAR"
    },
    {
      "bufferView": 2,
      "byteOffset": 35328,
      "componentType": 5126,
      "count": 1472,
      "max": [
        -12.303952217102051,
        127.13216400146484,
        257.32638549804688
      ],
      "min": [
        -125.17747497558594,
        -127.13216400146484,
        26.565376281738281
      ],
      "type": "VEC3"
    },
    {
      "bufferView": 2,
      "byteOffset": 52992,
      "componentType": 5126,
      "count": 1472,
      "max": [
        0.99813359975814819,
        0.48558953404426575,
        0.81511092185974121
      ],
      "min": [
        -0.99813324213027954,
        -0.48558953404426575,
        -0.81510746479034424
      ],
      "type": "VEC3"
    },
    {
      "bufferView": 1,
      "byteOffset": 11776,
      "componentType": 5126,
      "count": 1472,
      "max": [
        0.99999964237213135,
        0.99999994039535522
      ],
      "min": [
        -9.6533618432204094e-08,
        -3.9390894812640909e-07
      ],
      "type": "VEC2"
    },
    {
      "bufferView": 1,
      "byteOffset": 23552,
      "componentType": 5126,
      "count": 1472,
      "max": [
        0.99999964237213135,
        0.99999994039535522
      ],
      "min": [
        -9.6533618432204094e-08,
        -3.9390894812640909e-07
      ],
      "type": "VEC2"
    },
    {
      "bufferView": 1,
      "byteOffset": 35328,
      "componentType": 5126,
      "count": 1472,
      "max": [
        0.99999964237213135,
        0.99999994039535522
      ],
      "min": [
        -9.6533618432204094e-08,
        -3.9390894812640909e-07
      ],
      "type": "VEC2"
    },
    {
      "bufferView": 0,
      "byteOffset": 8832,
      "componentType": 5125,
      "count": 2208,
      "max": [
        1471
      ],
      "min": [
        0
      ],
      "type": "SCALAR"
    },
    {
      "bufferView": 3,
      "componentType": 5126,
      "count": 3332,
      "max": [
        111.09999847412109
      ],
      "min": [
        0.033333335071802139
      ],
      "type": "SCALAR"
    },
    {
      "bufferView": 4,
      "componentType": 5126,
      "count": 3332,
      "max": [
        8.3637886096461734e-17,
        1,
        8.3637886096461734e-17,
        1
      ],
      "min": [
        -8.6595566329596141e-17,
        -0.86571097373962402,
        -8.6595566329596141e-17,
        -0.49972781538963318
      ],
      "type": "VEC4"
    }
  ],
  "animations": [
    {
      "channels": [
        {
          "sampler": 0,
          "target": {
            "node": 5,
            "path": "rotation"
          }
        }
      ],
      "name": "Take 001",
      "samplers": [
        {
          "input": 10,
          "interpolation": "LINEAR",
          "output": 11
        }
      ]
    }
  ],
  "asset": {
    "extras": {
      "author": "ENEA LE FONS (https://sketchfab.com/enealefons)",
      "license": "CC-BY-4.0 (http://creativecommons.org/licenses/by/4.0/)",
      "source": "https://sketchfab.com/3d-models/rotating-circle-d5cbfc566ba64757b344204a2562ee61",
      "title": "ROTATING CIRCLE"
    },
    "generator": "Sketchfab-9.54.0",
    "version": "2.0"
  },
  "bufferViews": [
    {
      "buffer": 0,
      "byteLength": 17664,
      "byteOffset": 0,
      "name": "floatBufferViews",
      "target": 34963
    },
    {
      "buffer": 0,
      "byteLength": 47104,
      "byteOffset": 17664,
      "byteStride": 8,
      "name": "floatBufferViews",
      "target": 34962
    },
    {
      "buffer": 0,
      "byteLength": 70656,
      "byteOffset": 64768,
      "byteStride": 12,
      "name": "floatBufferViews",
      "target": 34962
    },
    {
      "buffer": 0,
      "byteLength": 13328,
      "byteOffset": 135424,
      "name": "floatBufferViews"
    },
    {
      "buffer": 0,
      "byteLength": 53312,
      "byteOffset": 148752,
      "byteStride": 16,
      "name": "floatBufferViews"
    }
  ],
  "buffers": [
    {
      "byteLength": 202064,
      "uri": "scene.bin"
    }
  ],
  "images": [
    {
      "uri": "textures/Material_baseColor.png"
    },
    {
      "uri": "textures/Material_emissive.png"
    }
  ],
  "materials": [
    {
      "doubleSided": true,
      "emissiveFactor": [
        1,
        1,
        1
      ],
      "name": "Material15",
      "pbrMetallicRoughness": {
        "baseColorFactor": [
          1,
          1,
          1,
          1
        ],
        "metallicFactor": 0,
        "roughnessFactor": 0.78852574731188718
      }
    },
    {
      "alphaMode": "BLEND",
      "doubleSided": true,
      "emissiveFactor": [
        1,
        1,
        1
      ],
      "emissiveTexture": {
        "index": 1,
        "texCoord": 0
      },
      "name": "Material",
      "pbrMetallicRoughness": {
        "baseColorFactor": [
          1,
          1,
          1,
          1
        ],
        "baseColorTexture": {
          "index": 0,
          "texCoord": 0
        },
        "metallicFactor": 0,
        "roughnessFactor": 1
      }
    }
  ],
  "meshes": [
    {
      "name": "circle8_Material15_0",
      "primitives": [
        {
          "attributes": {
            "NORMAL": 1,
            "POSITION": 0,
            "TEXCOORD_0": 2
          },
          "indices": 3,
          "material": 0,
          "mode": 4
        }
      ]
    },
    {
      "name": "circle8_Material_0",
      "primitives": [
        {
          "attributes": {
            "NORMAL": 5,
            "POSITION": 4,
            "TEXCOORD_0": 6,
            "TEXCOORD_1": 7,
            "TEXCOORD_2": 8
          },
          "indices": 9,
          "material": 1,
          "mode": 4
        }
      ]
    }
  ],
  "nodes": [
    {
      "children": [
        1
      ],
      "name": "RootNode (gltf orientation matrix)",
      "rotation": [
        -0.70710678118654746,
        -0,
        -0,
        0.70710678118654757
      ]
    },
    {
      "children": [
        2
      ],
      "name": "RootNode (model correction matrix)"
    },
    {
      "children": [
        3
      ],
      "matrix": [
        1,
        0,
        0,
        0,
        0,
        0,
        1,
        0,
        0,
        -1,
        0,
        0,
        0,
        0,
        0,
        1
      ],
      "name": "b464b08889264928b7ec28bea411252b.fbx"
    },
    {
      "children": [
        4
      ],
      "name": ""
    },
    {
      "children": [
        5
      ],
      "name": "RootNode"
    },
    {
      "children": [
        6,
        7
      ],
      "name": "circle8"
    },
    {
      "mesh": 0,
      "name": "circle8_Material15_0"
    },
    {
      "mesh": 1,
      "name": "circle8_Material_0"
    }
  ],
  "samplers": [
    {
      "magFilter": 9729,
      "minFilter": 9987,
      "wrapS": 33071,
      "wrapT": 33071
    },
    {
      "magFilter": 9729,
      "minFilter": 9987,
      "wrapS": 10497,
      "wrapT": 10497
    }
  ],
  "scene": 0,
  "scenes": [
    {
      "name": "OSG_Scene",
      "nodes": [
        0
      ]
    }
  ],
  "textures": [
    {
      "sampler": 0,
      "source": 0
    },
    {
      "sampler": 1,
      "source": 1
    }
  ]
}

